<svg xmlns="http://www.w3.org/2000/svg" xmlns:xlink="http://www.w3.org/1999/xlink" width="480" zoomAndPan="magnify" viewBox="0 0 360 359.999987" height="480" preserveAspectRatio="xMidYMid meet" version="1.0"><defs><clipPath id="46fc0ddb53"><path d="M 113 108 L 252 108 L 252 247 L 113 247 Z M 113 108 " clip-rule="nonzero"/></clipPath></defs><rect x="-36" width="432" fill="#ffffff" y="-35.999999" height="431.999984" fill-opacity="1"/><rect x="-36" width="432" fill="#ffffff" y="-35.999999" height="431.999984" fill-opacity="1"/><path fill="#702e3b" d="M 161.722656 140.722656 L 203.804688 140.722656 L 203.804688 205.105469 L 161.722656 205.105469 Z M 161.722656 140.722656 " fill-opacity="1" fill-rule="nonzero"/><path fill="#702e3b" d="M 182.765625 210.265625 C 182.472656 210.265625 182.179688 210.292969 181.894531 210.351562 C 181.605469 210.410156 181.328125 210.492188 181.058594 210.605469 C 180.785156 210.71875 180.53125 210.855469 180.285156 211.015625 C 180.042969 211.179688 179.816406 211.363281 179.609375 211.570312 C 179.402344 211.777344 179.21875 212.003906 179.054688 212.246094 C 178.894531 212.492188 178.757812 212.746094 178.644531 213.019531 C 178.53125 213.289062 178.449219 213.566406 178.390625 213.855469 C 178.332031 214.140625 178.304688 214.433594 178.304688 214.726562 C 178.304688 215.019531 178.332031 215.308594 178.390625 215.59375 C 178.449219 215.882812 178.53125 216.160156 178.644531 216.429688 C 178.757812 216.703125 178.894531 216.957031 179.054688 217.203125 C 179.21875 217.445312 179.402344 217.671875 179.609375 217.878906 C 179.816406 218.085938 180.042969 218.269531 180.285156 218.433594 C 180.53125 218.59375 180.785156 218.730469 181.058594 218.84375 C 181.328125 218.957031 181.605469 219.042969 181.894531 219.097656 C 182.179688 219.15625 182.472656 219.183594 182.765625 219.183594 C 183.058594 219.183594 183.347656 219.15625 183.632812 219.097656 C 183.921875 219.042969 184.199219 218.957031 184.46875 218.84375 C 184.742188 218.730469 184.996094 218.59375 185.242188 218.433594 C 185.484375 218.269531 185.710938 218.085938 185.917969 217.878906 C 186.125 217.671875 186.308594 217.445312 186.472656 217.203125 C 186.632812 216.957031 186.769531 216.703125 186.882812 216.429688 C 186.996094 216.160156 187.082031 215.882812 187.136719 215.59375 C 187.195312 215.308594 187.222656 215.019531 187.222656 214.726562 C 187.222656 214.433594 187.195312 214.140625 187.136719 213.855469 C 187.082031 213.566406 186.996094 213.289062 186.882812 213.019531 C 186.769531 212.746094 186.632812 212.492188 186.472656 212.246094 C 186.308594 212.003906 186.125 211.777344 185.917969 211.570312 C 185.710938 211.363281 185.484375 211.179688 185.242188 211.015625 C 184.996094 210.855469 184.742188 210.71875 184.46875 210.605469 C 184.199219 210.492188 183.921875 210.410156 183.632812 210.351562 C 183.347656 210.292969 183.058594 210.265625 182.765625 210.265625 Z M 182.765625 210.265625 " fill-opacity="1" fill-rule="nonzero"/><g clip-path="url(#46fc0ddb53)"><path fill="#702e3b" d="M 182.765625 107.96875 C 181.628906 107.96875 180.496094 107.996094 179.363281 108.054688 C 178.234375 108.109375 177.101562 108.191406 175.976562 108.304688 C 174.847656 108.414062 173.722656 108.554688 172.601562 108.71875 C 171.480469 108.886719 170.363281 109.078125 169.25 109.300781 C 168.140625 109.523438 167.03125 109.769531 165.933594 110.046875 C 164.832031 110.320312 163.742188 110.621094 162.65625 110.953125 C 161.570312 111.28125 160.496094 111.636719 159.429688 112.019531 C 158.363281 112.398438 157.304688 112.808594 156.257812 113.242188 C 155.210938 113.675781 154.171875 114.136719 153.148438 114.621094 C 152.125 115.105469 151.113281 115.613281 150.113281 116.148438 C 149.113281 116.683594 148.125 117.242188 147.152344 117.824219 C 146.179688 118.40625 145.222656 119.011719 144.28125 119.644531 C 143.339844 120.273438 142.414062 120.925781 141.5 121.601562 C 140.589844 122.277344 139.699219 122.972656 138.820312 123.691406 C 137.945312 124.410156 137.085938 125.152344 136.246094 125.914062 C 135.40625 126.675781 134.585938 127.457031 133.785156 128.257812 C 132.984375 129.058594 132.203125 129.878906 131.441406 130.71875 C 130.679688 131.558594 129.9375 132.417969 129.21875 133.292969 C 128.5 134.171875 127.804688 135.0625 127.128906 135.972656 C 126.453125 136.882812 125.800781 137.8125 125.171875 138.753906 C 124.542969 139.695312 123.933594 140.652344 123.351562 141.625 C 122.769531 142.597656 122.210938 143.585938 121.675781 144.585938 C 121.140625 145.582031 120.632812 146.597656 120.148438 147.621094 C 119.664062 148.644531 119.203125 149.679688 118.769531 150.730469 C 118.335938 151.777344 117.929688 152.832031 117.546875 153.902344 C 117.164062 154.96875 116.808594 156.042969 116.480469 157.128906 C 116.152344 158.214844 115.847656 159.304688 115.574219 160.40625 C 115.296875 161.503906 115.050781 162.609375 114.828125 163.722656 C 114.605469 164.835938 114.414062 165.953125 114.246094 167.074219 C 114.082031 168.195312 113.941406 169.320312 113.832031 170.445312 C 113.71875 171.574219 113.636719 172.703125 113.582031 173.835938 C 113.523438 174.96875 113.496094 176.101562 113.496094 177.234375 C 113.496094 178.371094 113.523438 179.503906 113.582031 180.636719 C 113.636719 181.765625 113.71875 182.898438 113.832031 184.023438 C 113.941406 185.152344 114.082031 186.277344 114.246094 187.398438 C 114.414062 188.519531 114.605469 189.636719 114.828125 190.75 C 115.050781 191.859375 115.296875 192.96875 115.574219 194.066406 C 115.847656 195.167969 116.152344 196.257812 116.480469 197.34375 C 116.808594 198.429688 117.164062 199.503906 117.546875 200.570312 C 117.929688 201.636719 118.335938 202.695312 118.769531 203.742188 C 119.203125 204.789062 119.664062 205.828125 120.148438 206.851562 C 120.632812 207.875 121.140625 208.886719 121.675781 209.886719 C 122.210938 210.886719 122.769531 211.875 123.351562 212.847656 C 123.933594 213.820312 124.542969 214.777344 125.171875 215.71875 C 125.800781 216.660156 126.453125 217.585938 127.128906 218.5 C 127.804688 219.410156 128.5 220.300781 129.21875 221.179688 C 129.9375 222.054688 130.679688 222.914062 131.441406 223.753906 C 132.203125 224.59375 132.984375 225.414062 133.785156 226.214844 C 134.585938 227.015625 135.40625 227.796875 136.246094 228.558594 C 137.085938 229.320312 137.945312 230.0625 138.820312 230.78125 C 139.699219 231.5 140.589844 232.195312 141.5 232.871094 C 142.414062 233.546875 143.339844 234.199219 144.28125 234.828125 C 145.222656 235.457031 146.179688 236.066406 147.152344 236.648438 C 148.125 237.230469 149.113281 237.789062 150.113281 238.324219 C 151.113281 238.859375 152.125 239.367188 153.148438 239.851562 C 154.171875 240.335938 155.210938 240.796875 156.257812 241.230469 C 157.304688 241.664062 158.363281 242.070312 159.429688 242.453125 C 160.496094 242.835938 161.570312 243.191406 162.65625 243.519531 C 163.742188 243.847656 164.832031 244.152344 165.933594 244.425781 C 167.03125 244.703125 168.140625 244.949219 169.25 245.171875 C 170.363281 245.394531 171.480469 245.585938 172.601562 245.753906 C 173.722656 245.917969 174.847656 246.058594 175.976562 246.167969 C 177.101562 246.28125 178.234375 246.363281 179.363281 246.417969 C 180.496094 246.476562 181.628906 246.503906 182.765625 246.503906 C 183.898438 246.503906 185.03125 246.476562 186.164062 246.417969 C 187.292969 246.363281 188.425781 246.28125 189.554688 246.167969 C 190.679688 246.058594 191.804688 245.917969 192.925781 245.753906 C 194.046875 245.585938 195.164062 245.394531 196.277344 245.171875 C 197.390625 244.949219 198.496094 244.703125 199.59375 244.425781 C 200.695312 244.152344 201.785156 243.847656 202.871094 243.519531 C 203.957031 243.191406 205.03125 242.835938 206.097656 242.453125 C 207.167969 242.070312 208.222656 241.664062 209.269531 241.230469 C 210.320312 240.796875 211.355469 240.335938 212.378906 239.851562 C 213.402344 239.367188 214.417969 238.859375 215.414062 238.324219 C 216.414062 237.789062 217.402344 237.230469 218.375 236.648438 C 219.347656 236.066406 220.304688 235.457031 221.246094 234.828125 C 222.1875 234.199219 223.117188 233.546875 224.027344 232.871094 C 224.9375 232.195312 225.828125 231.5 226.707031 230.78125 C 227.582031 230.0625 228.441406 229.320312 229.28125 228.558594 C 230.121094 227.796875 230.941406 227.015625 231.742188 226.214844 C 232.542969 225.414062 233.324219 224.59375 234.085938 223.753906 C 234.847656 222.914062 235.589844 222.054688 236.308594 221.179688 C 237.027344 220.300781 237.722656 219.410156 238.398438 218.5 C 239.074219 217.585938 239.726562 216.660156 240.355469 215.71875 C 240.988281 214.777344 241.59375 213.820312 242.175781 212.847656 C 242.757812 211.875 243.316406 210.886719 243.851562 209.886719 C 244.386719 208.886719 244.894531 207.875 245.378906 206.851562 C 245.863281 205.828125 246.324219 204.789062 246.757812 203.742188 C 247.191406 202.695312 247.597656 201.636719 247.980469 200.570312 C 248.363281 199.503906 248.71875 198.429688 249.046875 197.34375 C 249.378906 196.257812 249.679688 195.167969 249.953125 194.066406 C 250.230469 192.96875 250.476562 191.859375 250.699219 190.75 C 250.921875 189.636719 251.113281 188.519531 251.28125 187.398438 C 251.445312 186.277344 251.585938 185.152344 251.695312 184.023438 C 251.808594 182.898438 251.890625 181.765625 251.945312 180.636719 C 252.003906 179.503906 252.03125 178.371094 252.03125 177.234375 C 252.03125 176.101562 252.003906 174.96875 251.945312 173.835938 C 251.890625 172.703125 251.808594 171.574219 251.695312 170.445312 C 251.585938 169.320312 251.445312 168.195312 251.28125 167.074219 C 251.113281 165.953125 250.921875 164.835938 250.699219 163.722656 C 250.476562 162.609375 250.230469 161.503906 249.953125 160.40625 C 249.679688 159.304688 249.378906 158.214844 249.046875 157.128906 C 248.71875 156.042969 248.363281 154.96875 247.980469 153.902344 C 247.597656 152.832031 247.191406 151.777344 246.757812 150.730469 C 246.324219 149.679688 245.863281 148.644531 245.378906 147.621094 C 244.894531 146.597656 244.386719 145.582031 243.851562 144.585938 C 243.316406 143.585938 242.757812 142.597656 242.175781 141.625 C 241.59375 140.652344 240.988281 139.695312 240.355469 138.753906 C 239.726562 137.8125 239.074219 136.882812 238.398438 135.972656 C 237.722656 135.0625 237.027344 134.171875 236.308594 133.292969 C 235.589844 132.417969 234.847656 131.558594 234.085938 130.71875 C 233.324219 129.878906 232.542969 129.058594 231.742188 128.257812 C 230.941406 127.457031 230.121094 126.675781 229.28125 125.914062 C 228.441406 125.152344 227.582031 124.410156 226.707031 123.691406 C 225.828125 122.972656 224.9375 122.277344 224.027344 121.601562 C 223.117188 120.925781 222.1875 120.273438 221.246094 119.644531 C 220.304688 119.011719 219.347656 118.40625 218.375 117.824219 C 217.402344 117.242188 216.414062 116.683594 215.414062 116.148438 C 214.417969 115.613281 213.402344 115.105469 212.378906 114.621094 C 211.355469 114.136719 210.320312 113.675781 209.269531 113.242188 C 208.222656 112.808594 207.167969 112.398438 206.097656 112.019531 C 205.03125 111.636719 203.957031 111.28125 202.871094 110.953125 C 201.785156 110.621094 200.695312 110.320312 199.59375 110.046875 C 198.496094 109.769531 197.390625 109.523438 196.277344 109.300781 C 195.164062 109.078125 194.046875 108.886719 192.925781 108.71875 C 191.804688 108.554688 190.679688 108.414062 189.554688 108.304688 C 188.425781 108.191406 187.296875 108.109375 186.164062 108.054688 C 185.03125 107.996094 183.898438 107.96875 182.765625 107.96875 Z M 208.722656 219.445312 C 208.730469 219.714844 208.707031 219.984375 208.660156 220.25 C 208.609375 220.515625 208.535156 220.777344 208.433594 221.027344 C 208.335938 221.277344 208.210938 221.519531 208.0625 221.746094 C 207.914062 221.972656 207.746094 222.183594 207.558594 222.375 C 207.367188 222.570312 207.160156 222.742188 206.9375 222.894531 C 206.710938 223.046875 206.472656 223.175781 206.222656 223.28125 C 205.976562 223.382812 205.71875 223.464844 205.453125 223.515625 C 205.1875 223.570312 204.917969 223.597656 204.644531 223.597656 L 160.835938 223.597656 C 160.566406 223.597656 160.300781 223.570312 160.039062 223.519531 C 159.773438 223.464844 159.519531 223.386719 159.273438 223.285156 C 159.023438 223.183594 158.789062 223.054688 158.566406 222.90625 C 158.34375 222.757812 158.136719 222.585938 157.945312 222.398438 C 157.757812 222.207031 157.589844 222 157.441406 221.777344 C 157.292969 221.554688 157.167969 221.316406 157.0625 221.070312 C 156.960938 220.820312 156.886719 220.566406 156.835938 220.300781 C 156.78125 220.039062 156.757812 219.773438 156.757812 219.503906 L 156.757812 135.027344 C 156.753906 134.757812 156.777344 134.492188 156.828125 134.226562 C 156.878906 133.964844 156.953125 133.707031 157.054688 133.457031 C 157.15625 133.207031 157.28125 132.96875 157.429688 132.746094 C 157.578125 132.519531 157.746094 132.3125 157.9375 132.121094 C 158.125 131.929688 158.332031 131.757812 158.558594 131.609375 C 158.78125 131.460938 159.015625 131.332031 159.265625 131.230469 C 159.515625 131.125 159.769531 131.050781 160.035156 130.996094 C 160.300781 130.945312 160.566406 130.917969 160.835938 130.921875 L 204.644531 130.921875 C 204.914062 130.917969 205.183594 130.945312 205.445312 130.996094 C 205.710938 131.050781 205.96875 131.125 206.214844 131.230469 C 206.464844 131.332031 206.703125 131.460938 206.925781 131.609375 C 207.148438 131.757812 207.355469 131.929688 207.542969 132.121094 C 207.734375 132.3125 207.902344 132.519531 208.050781 132.746094 C 208.199219 132.96875 208.324219 133.207031 208.425781 133.457031 C 208.527344 133.707031 208.601562 133.964844 208.652344 134.226562 C 208.703125 134.492188 208.726562 134.757812 208.722656 135.027344 Z M 208.722656 219.445312 " fill-opacity="1" fill-rule="nonzero"/></g></svg>