<svg xmlns="http://www.w3.org/2000/svg" xmlns:xlink="http://www.w3.org/1999/xlink" width="480" zoomAndPan="magnify" viewBox="0 0 360 359.999987" height="480" preserveAspectRatio="xMidYMid meet" version="1.2"><defs><clipPath id="552abc7328"><path d="M 196 159.660156 L 278 159.660156 L 278 237 L 196 237 Z M 196 159.660156 "/></clipPath><clipPath id="fa913841a6"><path d="M 36 238 L 324 238 L 324 240.625 L 36 240.625 Z M 36 238 "/></clipPath></defs><g id="0a34abe9a6"><path style=" stroke:none;fill-rule:nonzero;fill:#702e3b;fill-opacity:1;" d="M 70.777344 209.199219 L 63.144531 209.199219 L 63.144531 236.898438 L 71.820312 236.898438 L 71.820312 236.742188 L 71.855469 236.742188 L 71.855469 235.578125 L 71.820312 235.578125 L 71.820312 235.421875 L 71.855469 235.421875 L 71.855469 234.261719 L 71.820312 234.261719 L 71.820312 234.105469 L 71.855469 234.105469 L 71.855469 232.941406 L 71.820312 232.941406 L 71.820312 232.785156 L 71.855469 232.785156 L 71.855469 231.621094 L 71.820312 231.621094 L 71.820312 231.46875 L 71.855469 231.46875 L 71.855469 230.304688 L 71.820312 230.304688 L 71.820312 230.144531 L 71.855469 230.144531 L 71.855469 228.984375 L 71.820312 228.984375 L 71.820312 228.828125 L 71.855469 228.828125 L 71.855469 227.667969 L 71.820312 227.667969 L 71.820312 227.507812 L 71.855469 227.507812 L 71.855469 226.34375 L 71.820312 226.34375 L 71.820312 226.1875 L 71.855469 226.1875 L 71.855469 225.027344 L 71.820312 225.027344 L 71.820312 224.871094 L 71.855469 224.871094 L 71.855469 223.707031 L 71.820312 223.707031 L 71.820312 223.550781 L 71.855469 223.550781 L 71.855469 222.386719 L 71.820312 222.386719 L 71.820312 222.234375 L 71.855469 222.234375 L 71.855469 221.070312 L 71.820312 221.070312 L 71.820312 220.914062 L 71.855469 220.914062 L 71.855469 219.75 L 71.820312 219.75 L 71.820312 219.59375 L 71.855469 219.59375 L 71.855469 218.433594 L 71.820312 218.433594 L 71.820312 218.273438 L 71.855469 218.273438 L 71.855469 217.113281 L 71.820312 217.113281 L 71.820312 216.953125 L 71.855469 216.953125 L 71.855469 215.792969 L 71.820312 215.792969 L 71.820312 215.636719 L 71.855469 215.636719 L 71.855469 214.472656 L 71.820312 214.472656 L 71.820312 214.316406 L 71.855469 214.316406 L 71.855469 213.152344 L 71.820312 213.152344 L 71.820312 213 L 71.855469 213 L 71.855469 211.835938 L 71.820312 211.835938 L 71.820312 211.679688 L 71.855469 211.679688 L 71.855469 210.515625 L 71.820312 210.515625 L 71.820312 210.359375 L 71.855469 210.359375 L 71.855469 209.199219 L 70.777344 209.199219 "/><g clip-rule="nonzero" clip-path="url(#552abc7328)"><path style=" stroke:none;fill-rule:nonzero;fill:#702e3b;fill-opacity:1;" d="M 203.261719 165.242188 L 203.980469 165.242188 L 203.980469 165.269531 L 203.203125 165.269531 L 203.203125 165.242188 Z M 276.339844 192.914062 L 276.339844 192.464844 L 276.28125 192.464844 L 276.28125 191.195312 L 276.601562 191.195312 L 276.601562 190.851562 L 276.210938 190.851562 L 275.847656 189.605469 L 274.683594 189.605469 L 274.421875 188.355469 L 273.394531 188.355469 L 273.214844 187.109375 L 271.960938 187.109375 L 270.851562 184.71875 L 270.839844 182.378906 L 270.503906 182.378906 L 270.496094 184.71875 L 269.382812 187.109375 L 268.125 187.109375 L 267.949219 188.355469 L 266.921875 188.355469 L 266.660156 189.605469 L 265.496094 189.605469 L 265.136719 190.851562 L 264.742188 190.851562 L 264.742188 191.195312 L 265.0625 191.195312 L 265.0625 192.464844 L 265.003906 192.464844 L 265.003906 200.214844 L 263.664062 200.214844 L 263.664062 211.902344 L 261.867188 211.902344 L 261.867188 213.378906 L 259.988281 213.378906 L 259.988281 222.46875 L 258.882812 222.46875 L 258.882812 217.660156 L 258.808594 217.660156 L 258.808594 222.46875 L 257.578125 222.46875 L 257.578125 216.136719 L 257.082031 216.136719 L 257.082031 215.722656 L 254.707031 215.722656 L 254.707031 213.535156 L 257.082031 213.535156 L 257.082031 210.292969 L 254.703125 210.292969 L 254.703125 192.472656 L 254.976562 192.472656 L 254.976562 191.804688 L 253.21875 191.804688 L 253.21875 188.410156 L 253.632812 188.410156 L 253.632812 187.917969 L 253.125 187.917969 L 252.65625 186.125 L 251.140625 186.125 L 250.800781 184.335938 L 249.464844 184.335938 L 249.25 182.660156 L 247.796875 182.660156 L 247.796875 182.121094 L 244.050781 182.121094 L 244.050781 182.660156 L 242.597656 182.660156 L 242.382812 184.335938 L 241.042969 184.335938 L 240.707031 186.125 L 239.191406 186.125 L 238.722656 187.917969 L 238.214844 187.917969 L 238.214844 188.410156 L 238.628906 188.410156 L 238.628906 191.804688 L 236.871094 191.804688 L 236.871094 192.472656 L 237.144531 192.472656 L 237.144531 209.515625 L 236.707031 209.515625 L 236.707031 208.097656 L 236.585938 208.097656 L 236.585938 209.515625 L 233.597656 209.515625 L 233.597656 193.488281 L 228.195312 193.488281 L 228.195312 189.378906 L 223.40625 189.378906 L 223.40625 193.488281 L 217.992188 193.488281 L 217.992188 225.347656 L 217.292969 225.347656 L 217.292969 227.175781 L 216.941406 227.175781 L 216.941406 210.109375 L 217.183594 210.109375 L 217.183594 209.660156 L 214.558594 209.660156 L 214.558594 208.476562 L 213.621094 208.476562 L 213.621094 209.660156 L 210.234375 209.660156 L 210.234375 209.523438 L 210.453125 209.523438 L 210.453125 209.035156 L 210.234375 209.035156 L 210.234375 208.527344 L 210.453125 208.527344 L 210.453125 208.042969 L 210.234375 208.042969 L 210.234375 207.53125 L 210.453125 207.53125 L 210.453125 207.046875 L 210.234375 207.046875 L 210.234375 206.535156 L 210.453125 206.535156 L 210.453125 206.050781 L 210.234375 206.050781 L 210.234375 205.542969 L 210.453125 205.542969 L 210.453125 205.058594 L 210.234375 205.058594 L 210.234375 204.546875 L 210.453125 204.546875 L 210.453125 204.0625 L 210.234375 204.0625 L 210.234375 203.550781 L 210.453125 203.550781 L 210.453125 203.066406 L 210.234375 203.066406 L 210.234375 202.558594 L 210.453125 202.558594 L 210.453125 202.074219 L 210.234375 202.074219 L 210.234375 201.5625 L 210.453125 201.5625 L 210.453125 201.078125 L 210.234375 201.078125 L 210.234375 200.566406 L 210.453125 200.566406 L 210.453125 200.082031 L 210.234375 200.082031 L 210.234375 199.574219 L 210.453125 199.574219 L 210.453125 199.085938 L 210.234375 199.085938 L 210.234375 198.578125 L 210.453125 198.578125 L 210.453125 198.089844 L 210.234375 198.089844 L 210.234375 197.582031 L 210.453125 197.582031 L 210.453125 197.097656 L 210.234375 197.097656 L 210.234375 196.585938 L 210.453125 196.585938 L 210.453125 196.101562 L 210.234375 196.101562 L 210.234375 195.589844 L 210.453125 195.589844 L 210.453125 195.105469 L 210.234375 195.105469 L 210.234375 194.597656 L 210.453125 194.597656 L 210.453125 194.113281 L 210.234375 194.113281 L 210.234375 193.601562 L 210.453125 193.601562 L 210.453125 193.117188 L 210.234375 193.117188 L 210.234375 192.605469 L 210.453125 192.605469 L 210.453125 192.121094 L 210.234375 192.121094 L 210.234375 191.613281 L 210.453125 191.613281 L 210.453125 191.125 L 210.234375 191.125 L 210.234375 190.617188 L 210.453125 190.617188 L 210.453125 190.128906 L 210.234375 190.128906 L 210.234375 189.621094 L 210.453125 189.621094 L 210.453125 189.136719 L 210.234375 189.136719 L 210.234375 188.625 L 210.453125 188.625 L 210.453125 188.140625 L 210.234375 188.140625 L 210.234375 187.628906 L 210.453125 187.628906 L 210.453125 187.144531 L 210.234375 187.144531 L 210.234375 186.636719 L 210.453125 186.636719 L 210.453125 186.152344 L 210.234375 186.152344 L 210.234375 185.640625 L 210.453125 185.640625 L 210.453125 185.15625 L 210.234375 185.15625 L 210.234375 184.644531 L 210.453125 184.644531 L 210.453125 184.160156 L 210.234375 184.160156 L 210.234375 183.652344 L 210.453125 183.652344 L 210.453125 183.164062 L 210.234375 183.164062 L 210.234375 182.65625 L 210.453125 182.65625 L 210.453125 182.167969 L 210.234375 182.167969 L 210.234375 181.660156 L 210.453125 181.660156 L 210.453125 181.175781 L 210.234375 181.175781 L 210.234375 180.664062 L 210.453125 180.664062 L 210.453125 180.179688 L 210.234375 180.179688 L 210.234375 179.671875 L 210.453125 179.671875 L 210.453125 179.1875 L 210.234375 179.1875 L 210.234375 178.675781 L 210.453125 178.675781 L 210.453125 178.191406 L 210.234375 178.191406 L 210.234375 177.679688 L 210.453125 177.679688 L 210.453125 177.195312 L 210.234375 177.195312 L 210.234375 176.6875 L 210.453125 176.6875 L 210.453125 176.199219 L 210.234375 176.199219 L 210.234375 175.691406 L 210.453125 175.691406 L 210.453125 175.203125 L 210.234375 175.203125 L 210.234375 174.695312 L 210.453125 174.695312 L 210.453125 174.207031 L 210.234375 174.207031 L 210.234375 173.699219 L 210.453125 173.699219 L 210.453125 173.214844 L 209.109375 173.214844 L 209.109375 170.976562 L 209.167969 170.976562 L 209.167969 170.808594 L 207.652344 170.808594 L 207.652344 170.019531 L 207.730469 170.019531 L 207.730469 169.792969 L 207.410156 169.792969 L 207.410156 165.242188 L 207.472656 165.242188 L 207.472656 165.042969 L 206.144531 165.042969 L 206.144531 164.316406 L 206.214844 164.316406 L 206.214844 164.121094 L 204.671875 164.121094 L 204.671875 159.914062 L 204.742188 159.914062 L 204.742188 159.722656 L 202.441406 159.722656 L 202.441406 159.914062 L 202.511719 159.914062 L 202.511719 164.121094 L 200.972656 164.121094 L 200.972656 164.316406 L 201.039062 164.316406 L 201.039062 165.042969 L 199.710938 165.042969 L 199.710938 165.242188 L 199.777344 165.242188 L 199.777344 169.792969 L 199.453125 169.792969 L 199.453125 170.019531 L 199.535156 170.019531 L 199.535156 170.808594 L 198.019531 170.808594 L 198.019531 170.976562 L 198.074219 170.976562 L 198.074219 173.214844 L 196.730469 173.214844 L 196.730469 173.699219 L 196.949219 173.699219 L 196.949219 174.207031 L 196.730469 174.207031 L 196.730469 174.695312 L 196.949219 174.695312 L 196.949219 175.203125 L 196.730469 175.203125 L 196.730469 175.691406 L 196.949219 175.691406 L 196.949219 176.199219 L 196.730469 176.199219 L 196.730469 176.6875 L 196.949219 176.6875 L 196.949219 177.195312 L 196.730469 177.195312 L 196.730469 177.679688 L 196.949219 177.679688 L 196.949219 178.191406 L 196.730469 178.191406 L 196.730469 178.675781 L 196.949219 178.675781 L 196.949219 179.1875 L 196.730469 179.1875 L 196.730469 179.671875 L 196.949219 179.671875 L 196.949219 180.179688 L 196.730469 180.179688 L 196.730469 180.664062 L 196.949219 180.664062 L 196.949219 181.175781 L 196.730469 181.175781 L 196.730469 181.660156 L 196.949219 181.660156 L 196.949219 182.167969 L 196.730469 182.167969 L 196.730469 182.65625 L 196.949219 182.65625 L 196.949219 183.164062 L 196.730469 183.164062 L 196.730469 183.652344 L 196.949219 183.652344 L 196.949219 184.160156 L 196.730469 184.160156 L 196.730469 184.644531 L 196.949219 184.644531 L 196.949219 185.15625 L 196.730469 185.15625 L 196.730469 185.640625 L 196.949219 185.640625 L 196.949219 186.152344 L 196.730469 186.152344 L 196.730469 186.636719 L 196.949219 186.636719 L 196.949219 187.144531 L 196.730469 187.144531 L 196.730469 187.628906 L 196.949219 187.628906 L 196.949219 188.140625 L 196.730469 188.140625 L 196.730469 188.625 L 196.949219 188.625 L 196.949219 189.136719 L 196.730469 189.136719 L 196.730469 189.621094 L 196.949219 189.621094 L 196.949219 190.128906 L 196.730469 190.128906 L 196.730469 190.617188 L 196.949219 190.617188 L 196.949219 191.125 L 196.730469 191.125 L 196.730469 191.613281 L 196.949219 191.613281 L 196.949219 192.121094 L 196.730469 192.121094 L 196.730469 192.605469 L 196.949219 192.605469 L 196.949219 193.117188 L 196.730469 193.117188 L 196.730469 193.601562 L 196.949219 193.601562 L 196.949219 194.113281 L 196.730469 194.113281 L 196.730469 194.597656 L 196.949219 194.597656 L 196.949219 195.105469 L 196.730469 195.105469 L 196.730469 195.589844 L 196.949219 195.589844 L 196.949219 196.101562 L 196.730469 196.101562 L 196.730469 196.585938 L 196.949219 196.585938 L 196.949219 197.097656 L 196.730469 197.097656 L 196.730469 197.582031 L 196.949219 197.582031 L 196.949219 198.089844 L 196.730469 198.089844 L 196.730469 198.578125 L 196.949219 198.578125 L 196.949219 199.085938 L 196.730469 199.085938 L 196.730469 199.574219 L 196.949219 199.574219 L 196.949219 200.082031 L 196.730469 200.082031 L 196.730469 200.566406 L 196.949219 200.566406 L 196.949219 201.078125 L 196.730469 201.078125 L 196.730469 201.5625 L 196.949219 201.5625 L 196.949219 202.074219 L 196.730469 202.074219 L 196.730469 202.558594 L 196.949219 202.558594 L 196.949219 203.066406 L 196.730469 203.066406 L 196.730469 203.550781 L 196.949219 203.550781 L 196.949219 204.0625 L 196.730469 204.0625 L 196.730469 204.546875 L 196.949219 204.546875 L 196.949219 205.058594 L 196.730469 205.058594 L 196.730469 205.542969 L 196.949219 205.542969 L 196.949219 206.050781 L 196.730469 206.050781 L 196.730469 206.535156 L 196.949219 206.535156 L 196.949219 207.046875 L 196.730469 207.046875 L 196.730469 207.53125 L 196.949219 207.53125 L 196.949219 208.042969 L 196.730469 208.042969 L 196.730469 208.527344 L 196.949219 208.527344 L 196.949219 209.035156 L 196.730469 209.035156 L 196.730469 209.523438 L 196.949219 209.523438 L 196.949219 210.03125 L 196.730469 210.03125 L 196.730469 210.519531 L 196.949219 210.519531 L 196.949219 211.027344 L 196.730469 211.027344 L 196.730469 211.511719 L 196.949219 211.511719 L 196.949219 212.023438 L 196.730469 212.023438 L 196.730469 212.507812 L 196.949219 212.507812 L 196.949219 213.019531 L 196.730469 213.019531 L 196.730469 213.5 L 196.949219 213.5 L 196.949219 214.011719 L 196.730469 214.011719 L 196.730469 214.496094 L 196.949219 214.496094 L 196.949219 215.007812 L 196.730469 215.007812 L 196.730469 215.492188 L 196.949219 215.492188 L 196.949219 216 L 196.730469 216 L 196.730469 216.488281 L 196.949219 216.488281 L 196.949219 216.996094 L 196.730469 216.996094 L 196.730469 217.484375 L 196.949219 217.484375 L 196.949219 217.992188 L 196.730469 217.992188 L 196.730469 218.480469 L 196.949219 218.480469 L 196.949219 218.988281 L 196.730469 218.988281 L 196.730469 219.472656 L 196.949219 219.472656 L 196.949219 219.984375 L 196.730469 219.984375 L 196.730469 220.46875 L 196.949219 220.46875 L 196.949219 220.980469 L 196.730469 220.980469 L 196.730469 221.464844 L 196.949219 221.464844 L 196.949219 221.972656 L 196.730469 221.972656 L 196.730469 222.457031 L 196.949219 222.457031 L 196.949219 222.96875 L 196.730469 222.96875 L 196.730469 223.453125 L 196.949219 223.453125 L 196.949219 223.960938 L 196.730469 223.960938 L 196.730469 224.449219 L 196.949219 224.449219 L 196.949219 224.957031 L 196.730469 224.957031 L 196.730469 225.445312 L 196.949219 225.445312 L 196.949219 225.953125 L 196.730469 225.953125 L 196.730469 226.4375 L 196.949219 226.4375 L 196.949219 226.949219 L 196.730469 226.949219 L 196.730469 227.433594 L 196.949219 227.433594 L 196.949219 227.945312 L 196.730469 227.945312 L 196.730469 228.429688 L 196.949219 228.429688 L 196.949219 228.9375 L 196.730469 228.9375 L 196.730469 229.421875 L 196.949219 229.421875 L 196.949219 229.933594 L 196.730469 229.933594 L 196.730469 230.417969 L 196.949219 230.417969 L 196.949219 230.929688 L 196.730469 230.929688 L 196.730469 231.414062 L 196.949219 231.414062 L 196.949219 231.921875 L 196.730469 231.921875 L 196.730469 232.410156 L 196.949219 232.410156 L 196.949219 232.917969 L 196.730469 232.917969 L 196.730469 233.40625 L 196.949219 233.40625 L 196.949219 233.914062 L 196.730469 233.914062 L 196.730469 234.402344 L 196.949219 234.402344 L 196.949219 234.910156 L 196.730469 234.910156 L 196.730469 235.394531 L 196.949219 235.394531 L 196.949219 235.90625 L 196.730469 235.90625 L 196.730469 236.390625 L 196.949219 236.390625 L 196.949219 236.898438 L 277.679688 236.898438 L 277.679688 200.214844 L 276.339844 200.214844 L 276.339844 192.914062 "/></g><path style=" stroke:none;fill-rule:nonzero;fill:#702e3b;fill-opacity:1;" d="M 178.96875 236.898438 L 194.707031 236.898438 L 194.707031 201.773438 L 178.96875 201.773438 L 178.96875 236.898438 "/><path style=" stroke:none;fill-rule:nonzero;fill:#702e3b;fill-opacity:1;" d="M 172.425781 200.988281 L 171.921875 200.988281 L 171.921875 197.589844 L 167.957031 197.589844 L 167.957031 200.988281 L 166.117188 200.988281 L 166.117188 193.902344 L 164.921875 193.902344 L 164.921875 175.738281 L 162.964844 175.738281 L 162.964844 164.238281 L 154.097656 164.238281 L 154.097656 190.214844 L 154.015625 190.214844 L 154.015625 193.703125 L 144.117188 193.703125 L 144.117188 190.214844 L 143.097656 190.214844 L 143.097656 193.703125 L 140.875 193.703125 L 140.875 194.507812 L 141.585938 194.507812 L 141.585938 210.792969 L 140.550781 210.792969 L 140.550781 212.054688 L 140 212.054688 L 140 210.792969 L 138.890625 210.792969 L 138.890625 212.054688 L 138.308594 212.054688 L 138.308594 226.160156 L 136.484375 226.160156 L 136.484375 171.226562 L 136.816406 171.226562 L 136.816406 170.773438 L 131.199219 170.773438 L 131.199219 161.875 L 130.980469 161.875 L 130.980469 170.773438 L 125.363281 170.773438 L 125.363281 171.226562 L 125.695312 171.226562 L 125.695312 214.976562 L 121.429688 214.976562 L 121.429688 189.609375 L 119.945312 189.609375 L 119.945312 186.90625 L 120.078125 186.90625 L 120.078125 186.722656 L 118.675781 186.722656 L 118.675781 185.773438 L 118.605469 185.773438 L 118.605469 185.582031 L 118.457031 185.582031 L 118.457031 185.328125 L 118.675781 185.328125 L 118.675781 185.070312 L 117.9375 185.070312 L 117.9375 182.613281 L 118.234375 182.304688 L 117.9375 182.304688 L 117.9375 181.886719 L 118.136719 181.46875 L 117.042969 181.46875 L 117.246094 181.886719 L 117.246094 182.121094 L 114.054688 182.121094 L 114.054688 181.886719 L 114.253906 181.46875 L 113.164062 181.46875 L 113.363281 181.886719 L 113.363281 182.304688 L 113.066406 182.304688 L 113.363281 182.613281 L 113.363281 185.070312 L 112.625 185.070312 L 112.625 185.328125 L 112.84375 185.328125 L 112.84375 185.582031 L 112.695312 185.582031 L 112.695312 185.773438 L 112.625 185.773438 L 112.625 186.722656 L 111.222656 186.722656 L 111.222656 186.90625 L 111.355469 186.90625 L 111.355469 189.609375 L 109.871094 189.609375 L 109.871094 216.78125 L 108.84375 216.78125 L 108.84375 215.464844 L 107.765625 215.464844 L 107.765625 216.78125 L 105.460938 216.78125 L 105.460938 199.753906 L 104.46875 199.753906 L 104.46875 199.054688 L 105.460938 199.054688 L 105.460938 196.023438 L 96.152344 195.167969 L 96.152344 196.664062 L 93.128906 196.664062 L 93.128906 199.054688 L 94.121094 199.054688 L 94.121094 199.753906 L 93.128906 199.753906 L 93.128906 236.898438 L 176.390625 236.898438 L 176.390625 200.988281 L 172.425781 200.988281 "/><path style=" stroke:none;fill-rule:nonzero;fill:#702e3b;fill-opacity:1;" d="M 319.277344 235.476562 L 319.277344 235.078125 L 319.027344 235.078125 L 319.027344 234.699219 L 318.9375 234.699219 L 318.9375 234.554688 L 319 234.554688 L 319 234.417969 L 318.9375 234.417969 L 318.9375 234.269531 L 317.210938 234.269531 L 317.210938 234.417969 L 317.148438 234.417969 L 317.148438 234.554688 L 317.210938 234.554688 L 317.210938 234.699219 L 317.121094 234.699219 L 317.121094 235.078125 L 316.53125 235.078125 L 316.53125 234.699219 L 316.445312 234.699219 L 316.445312 234.554688 L 316.507812 234.554688 L 316.507812 234.417969 L 316.445312 234.417969 L 316.445312 234.269531 L 314.71875 234.269531 L 314.71875 234.417969 L 314.65625 234.417969 L 314.65625 234.554688 L 314.71875 234.554688 L 314.71875 234.699219 L 314.628906 234.699219 L 314.628906 235.078125 L 310.359375 235.078125 L 310.359375 234.699219 L 310.273438 234.699219 L 310.273438 234.554688 L 310.335938 234.554688 L 310.335938 234.417969 L 310.273438 234.417969 L 310.273438 234.269531 L 308.546875 234.269531 L 308.546875 234.417969 L 308.484375 234.417969 L 308.484375 234.554688 L 308.546875 234.554688 L 308.546875 234.699219 L 308.457031 234.699219 L 308.457031 235.078125 L 304.191406 235.078125 L 304.191406 234.699219 L 304.101562 234.699219 L 304.101562 234.554688 L 304.164062 234.554688 L 304.164062 234.417969 L 304.101562 234.417969 L 304.101562 234.269531 L 302.375 234.269531 L 302.375 234.417969 L 302.3125 234.417969 L 302.3125 234.554688 L 302.375 234.554688 L 302.375 234.699219 L 302.289062 234.699219 L 302.289062 235.078125 L 301.695312 235.078125 L 301.695312 234.699219 L 301.609375 234.699219 L 301.609375 234.554688 L 301.671875 234.554688 L 301.671875 234.417969 L 301.609375 234.417969 L 301.609375 234.269531 L 299.882812 234.269531 L 299.882812 234.417969 L 299.820312 234.417969 L 299.820312 234.554688 L 299.882812 234.554688 L 299.882812 234.699219 L 299.792969 234.699219 L 299.792969 235.078125 L 299.542969 235.078125 L 299.542969 235.476562 L 298.921875 236.898438 L 319.898438 236.898438 L 319.277344 235.476562 "/><path style=" stroke:none;fill-rule:nonzero;fill:#702e3b;fill-opacity:1;" d="M 299.402344 226.242188 L 299.402344 226.578125 L 299.542969 226.578125 L 299.542969 226.8125 L 299.660156 226.8125 L 299.660156 227.117188 L 299.765625 227.117188 L 299.765625 227.214844 L 300.015625 227.214844 L 300.015625 227.3125 C 299.863281 227.3125 299.746094 227.429688 299.746094 227.582031 C 299.746094 227.730469 299.863281 227.847656 300.015625 227.847656 L 300.015625 228.390625 L 299.789062 228.390625 L 299.789062 228.496094 L 299.882812 228.496094 L 299.882812 228.644531 L 300.066406 228.644531 L 300.066406 234.269531 L 301.425781 234.269531 L 301.425781 228.644531 L 301.609375 228.644531 L 301.609375 228.496094 L 301.703125 228.496094 L 301.703125 228.390625 L 301.476562 228.390625 L 301.476562 227.847656 C 301.625 227.847656 301.746094 227.730469 301.746094 227.582031 C 301.746094 227.429688 301.625 227.3125 301.476562 227.3125 L 301.476562 227.214844 L 301.726562 227.214844 L 301.726562 227.117188 L 301.832031 227.117188 L 301.832031 226.8125 L 302.152344 226.8125 L 302.152344 227.117188 L 302.257812 227.117188 L 302.257812 227.214844 L 302.507812 227.214844 L 302.507812 227.3125 C 302.359375 227.3125 302.238281 227.429688 302.238281 227.582031 C 302.238281 227.730469 302.359375 227.847656 302.507812 227.847656 L 302.507812 228.390625 L 302.28125 228.390625 L 302.28125 228.496094 L 302.375 228.496094 L 302.375 228.644531 L 302.558594 228.644531 L 302.558594 234.269531 L 303.917969 234.269531 L 303.917969 228.644531 L 304.101562 228.644531 L 304.101562 228.496094 L 304.195312 228.496094 L 304.195312 228.390625 L 303.96875 228.390625 L 303.96875 227.847656 C 304.121094 227.847656 304.238281 227.730469 304.238281 227.582031 C 304.238281 227.429688 304.121094 227.3125 303.96875 227.3125 L 303.96875 227.214844 L 304.21875 227.214844 L 304.21875 227.117188 L 304.324219 227.117188 L 304.324219 226.8125 L 308.324219 226.8125 L 308.324219 227.117188 L 308.429688 227.117188 L 308.429688 227.214844 L 308.679688 227.214844 L 308.679688 227.3125 C 308.527344 227.3125 308.410156 227.429688 308.410156 227.582031 C 308.410156 227.730469 308.527344 227.847656 308.679688 227.847656 L 308.679688 228.390625 L 308.453125 228.390625 L 308.453125 228.496094 L 308.546875 228.496094 L 308.546875 228.644531 L 308.730469 228.644531 L 308.730469 234.269531 L 310.089844 234.269531 L 310.089844 228.644531 L 310.273438 228.644531 L 310.273438 228.496094 L 310.367188 228.496094 L 310.367188 228.390625 L 310.140625 228.390625 L 310.140625 227.847656 C 310.289062 227.847656 310.410156 227.730469 310.410156 227.582031 C 310.410156 227.429688 310.289062 227.3125 310.140625 227.3125 L 310.140625 227.214844 L 310.390625 227.214844 L 310.390625 227.117188 L 310.496094 227.117188 L 310.496094 226.8125 L 314.496094 226.8125 L 314.496094 227.117188 L 314.601562 227.117188 L 314.601562 227.214844 L 314.851562 227.214844 L 314.851562 227.3125 C 314.699219 227.3125 314.582031 227.429688 314.582031 227.582031 C 314.582031 227.730469 314.699219 227.847656 314.851562 227.847656 L 314.851562 228.390625 L 314.625 228.390625 L 314.625 228.496094 L 314.71875 228.496094 L 314.71875 228.644531 L 314.902344 228.644531 L 314.902344 234.269531 L 316.261719 234.269531 L 316.261719 228.644531 L 316.445312 228.644531 L 316.445312 228.496094 L 316.539062 228.496094 L 316.539062 228.390625 L 316.3125 228.390625 L 316.3125 227.847656 C 316.460938 227.847656 316.582031 227.730469 316.582031 227.582031 C 316.582031 227.429688 316.460938 227.3125 316.3125 227.3125 L 316.3125 227.214844 L 316.5625 227.214844 L 316.5625 227.117188 L 316.667969 227.117188 L 316.667969 226.8125 L 316.988281 226.8125 L 316.988281 227.117188 L 317.09375 227.117188 L 317.09375 227.214844 L 317.34375 227.214844 L 317.34375 227.3125 C 317.191406 227.3125 317.074219 227.429688 317.074219 227.582031 C 317.074219 227.730469 317.191406 227.847656 317.34375 227.847656 L 317.34375 228.390625 L 317.117188 228.390625 L 317.117188 228.496094 L 317.210938 228.496094 L 317.210938 228.644531 L 317.394531 228.644531 L 317.394531 234.269531 L 318.753906 234.269531 L 318.753906 228.644531 L 318.9375 228.644531 L 318.9375 228.496094 L 319.03125 228.496094 L 319.03125 228.390625 L 318.804688 228.390625 L 318.804688 227.847656 C 318.953125 227.847656 319.074219 227.730469 319.074219 227.582031 C 319.074219 227.429688 318.953125 227.3125 318.804688 227.3125 L 318.804688 227.214844 L 319.054688 227.214844 L 319.054688 227.117188 L 319.160156 227.117188 L 319.160156 226.8125 L 319.277344 226.8125 L 319.277344 226.578125 L 319.417969 226.578125 L 319.417969 226.242188 L 319.890625 226.242188 L 309.617188 221.261719 L 309.617188 221.136719 L 309.574219 221.136719 L 309.574219 221.058594 L 309.46875 221.058594 L 309.46875 220.984375 C 309.546875 220.960938 309.601562 220.890625 309.601562 220.804688 C 309.601562 220.722656 309.546875 220.652344 309.46875 220.625 L 309.46875 220.546875 L 309.410156 218.996094 L 309.351562 220.546875 L 309.351562 220.625 C 309.273438 220.648438 309.214844 220.71875 309.214844 220.804688 C 309.214844 220.890625 309.273438 220.960938 309.351562 220.984375 L 309.351562 221.058594 L 309.246094 221.058594 L 309.246094 221.136719 L 309.203125 221.136719 L 309.203125 221.261719 L 298.929688 226.242188 L 299.402344 226.242188 "/><path style=" stroke:none;fill-rule:nonzero;fill:#702e3b;fill-opacity:1;" d="M 86.800781 202.199219 L 86.246094 202.199219 L 86.246094 200.136719 L 79.976562 200.136719 L 79.976562 202.199219 L 79.421875 202.199219 L 79.421875 200.136719 L 74.953125 200.136719 L 74.953125 236.898438 L 91.273438 236.898438 L 91.273438 200.136719 L 86.800781 200.136719 L 86.800781 202.199219 "/><path style=" stroke:none;fill-rule:nonzero;fill:#702e3b;fill-opacity:1;" d="M 46.847656 219.222656 L 46.832031 219.222656 L 46.832031 207.710938 L 46.847656 207.710938 Z M 51.660156 219.222656 L 51.648438 219.222656 L 51.648438 207.710938 L 51.660156 207.710938 Z M 56.054688 219.546875 L 56.320312 219.546875 L 56.320312 219.386719 L 56.554688 219.386719 L 56.554688 219.222656 L 53.882812 219.222656 L 53.882812 207.710938 L 54.191406 207.710938 L 54.191406 207.550781 L 54.355469 207.550781 L 54.355469 207.386719 L 52.472656 207.386719 L 52.472656 206.867188 L 50.945312 206.867188 L 50.945312 206.347656 L 47.550781 206.347656 L 47.550781 206.867188 L 46.023438 206.867188 L 46.023438 207.386719 L 44.144531 207.386719 L 44.144531 207.550781 L 44.304688 207.550781 L 44.304688 207.710938 L 44.613281 207.710938 L 44.613281 219.222656 L 41.941406 219.222656 L 41.941406 219.386719 L 42.175781 219.386719 L 42.175781 219.546875 L 42.441406 219.546875 L 42.441406 231.058594 L 37.160156 231.058594 L 37.160156 231.21875 L 37.550781 231.21875 L 37.550781 231.382812 L 37.640625 231.382812 L 37.640625 236.898438 L 60.855469 236.898438 L 60.855469 231.382812 L 60.949219 231.382812 L 60.949219 231.21875 L 61.335938 231.21875 L 61.335938 231.058594 L 56.054688 231.058594 L 56.054688 219.546875 "/><path style=" stroke:none;fill-rule:nonzero;fill:#702e3b;fill-opacity:1;" d="M 292.621094 221.136719 L 292.246094 221.136719 L 292.246094 220.652344 L 288.457031 220.652344 L 288.457031 210.070312 L 279.726562 210.070312 L 279.726562 236.898438 L 294.761719 236.898438 L 294.761719 236.703125 L 294.648438 236.703125 L 294.648438 236.023438 L 294.761719 236.023438 L 294.761719 235.632812 L 294.648438 235.632812 L 294.648438 235.066406 L 294.761719 235.066406 L 294.761719 234.871094 L 294.648438 234.871094 L 294.648438 234.1875 L 294.761719 234.1875 L 294.761719 233.800781 L 294.648438 233.800781 L 294.648438 233.230469 L 294.761719 233.230469 L 294.761719 233.035156 L 294.648438 233.035156 L 294.648438 232.355469 L 294.761719 232.355469 L 294.761719 231.964844 L 294.648438 231.964844 L 294.648438 231.398438 L 294.761719 231.398438 L 294.761719 231.203125 L 294.648438 231.203125 L 294.648438 230.519531 L 294.761719 230.519531 L 294.761719 230.132812 L 294.648438 230.132812 L 294.648438 229.5625 L 294.761719 229.5625 L 294.761719 229.367188 L 294.648438 229.367188 L 294.648438 228.6875 L 294.761719 228.6875 L 294.761719 228.296875 L 294.648438 228.296875 L 294.648438 227.730469 L 294.761719 227.730469 L 294.761719 227.53125 L 294.648438 227.53125 L 294.648438 226.851562 L 294.761719 226.851562 L 294.761719 226.460938 L 294.648438 226.460938 L 294.648438 225.894531 L 294.761719 225.894531 L 294.761719 225.699219 L 294.648438 225.699219 L 294.648438 225.019531 L 294.761719 225.019531 L 294.761719 224.628906 L 294.648438 224.628906 L 294.648438 224.0625 L 294.761719 224.0625 L 294.761719 223.867188 L 294.648438 223.867188 L 294.648438 223.1875 L 294.761719 223.1875 L 294.761719 222.792969 L 292.621094 222.792969 L 292.621094 221.136719 "/><g clip-rule="nonzero" clip-path="url(#fa913841a6)"><path style=" stroke:none;fill-rule:nonzero;fill:#702e3b;fill-opacity:1;" d="M 324 238.316406 L 324 240.625 L 36.003906 240.625 L 36.003906 238.316406 L 324 238.316406 "/></g><path style=" stroke:none;fill-rule:nonzero;fill:#393536;fill-opacity:1;" d="M 324 238.394531 L 36 238.394531 L 36 236.835938 L 324 236.835938 L 324 238.394531 "/></g></svg>