<svg xmlns="http://www.w3.org/2000/svg" xmlns:xlink="http://www.w3.org/1999/xlink" width="480" zoomAndPan="magnify" viewBox="0 0 360 359.999987" height="480" preserveAspectRatio="xMidYMid meet" version="1.2"><defs><clipPath id="a6aaffd674"><path d="M 108 108 L 252 108 L 252 252 L 108 252 Z M 108 108 "/></clipPath></defs><g id="8242f653ab"><rect x="0" width="360" y="0" height="359.999987" style="fill:#ffffff;fill-opacity:1;stroke:none;"/><rect x="0" width="360" y="0" height="359.999987" style="fill:#ffffff;fill-opacity:1;stroke:none;"/><g clip-rule="nonzero" clip-path="url(#a6aaffd674)"><path style=" stroke:none;fill-rule:nonzero;fill:#702e3b;fill-opacity:1;" d="M 218.167969 189.054688 C 218.167969 195.292969 213.066406 200.394531 206.828125 200.394531 L 202.753906 218.601562 L 181.441406 200.394531 L 153.199219 200.394531 C 146.960938 200.394531 141.855469 195.292969 141.855469 189.054688 L 141.855469 157.246094 C 141.855469 151.007812 146.960938 145.902344 153.199219 145.902344 L 206.828125 145.902344 C 213.066406 145.902344 218.167969 151.007812 218.167969 157.246094 Z M 180.011719 108.003906 C 140.246094 108.003906 108.003906 140.246094 108.003906 180.011719 C 108.003906 219.78125 140.246094 252.019531 180.011719 252.019531 C 219.78125 252.019531 252.019531 219.78125 252.019531 180.011719 C 252.019531 140.246094 219.78125 108.003906 180.011719 108.003906 "/></g></g></svg>