<svg xmlns="http://www.w3.org/2000/svg" xmlns:xlink="http://www.w3.org/1999/xlink" width="480" zoomAndPan="magnify" viewBox="0 0 360 359.999987" height="480" preserveAspectRatio="xMidYMid meet" version="1.2"><defs><clipPath id="2e1ee5a2ad"><path d="M 124 83 L 234 83 L 234 232 L 124 232 Z M 124 83 "/></clipPath><clipPath id="3e29736d09"><path d="M 78.257812 175.894531 L 184.105469 78.257812 L 281.742188 184.105469 L 175.894531 281.742188 Z M 78.257812 175.894531 "/></clipPath><clipPath id="49c9ed3bb9"><path d="M 78.257812 175.894531 L 184.105469 78.257812 L 281.742188 184.105469 L 175.894531 281.742188 Z M 78.257812 175.894531 "/></clipPath></defs><g id="eaf5424cb1"><g clip-rule="nonzero" clip-path="url(#2e1ee5a2ad)"><g clip-rule="nonzero" clip-path="url(#3e29736d09)"><g clip-rule="nonzero" clip-path="url(#49c9ed3bb9)"><path style=" stroke:none;fill-rule:nonzero;fill:#702e3b;fill-opacity:1;" d="M 179.796875 210.890625 L 223.625 230.492188 C 226.0625 231.570312 228.921875 231.132812 230.921875 229.351562 C 230.953125 229.320312 230.953125 229.320312 230.988281 229.289062 C 232.921875 227.503906 233.652344 224.757812 232.90625 222.246094 L 190.996094 88.042969 C 190.128906 85.261719 187.625 83.367188 184.71875 83.28125 C 181.851562 83.164062 179.203125 84.855469 178.144531 87.589844 L 125.386719 221.335938 C 124.402344 223.875 125.035156 226.808594 126.984375 228.714844 C 128.929688 230.621094 131.882812 231.167969 134.40625 230.09375 Z M 179.796875 210.890625 "/></g></g></g></g></svg>