<svg xmlns="http://www.w3.org/2000/svg" xmlns:xlink="http://www.w3.org/1999/xlink" width="480" zoomAndPan="magnify" viewBox="0 0 360 359.999987" height="480" preserveAspectRatio="xMidYMid meet" version="1.2"><defs><clipPath id="9bcf127611"><path d="M 108 108 L 252 108 L 252 252 L 108 252 Z M 108 108 "/></clipPath><clipPath id="686173212c"><path d="M 152 124 L 224 124 L 224 252 L 152 252 Z M 152 124 "/></clipPath></defs><g id="179de09b79"><rect x="0" width="360" y="0" height="359.999987" style="fill:#ffffff;fill-opacity:1;stroke:none;"/><rect x="0" width="360" y="0" height="359.999987" style="fill:#ffffff;fill-opacity:1;stroke:none;"/><path style=" stroke:none;fill-rule:nonzero;fill:#702e3b;fill-opacity:1;" d="M 251.820312 179.984375 C 251.820312 181.160156 251.792969 182.332031 251.734375 183.507812 C 251.679688 184.683594 251.589844 185.855469 251.476562 187.023438 C 251.359375 188.195312 251.21875 189.359375 251.042969 190.523438 C 250.871094 191.683594 250.671875 192.84375 250.441406 193.996094 C 250.210938 195.148438 249.957031 196.296875 249.667969 197.433594 C 249.382812 198.574219 249.070312 199.707031 248.730469 200.832031 C 248.386719 201.957031 248.019531 203.074219 247.625 204.179688 C 247.226562 205.285156 246.804688 206.382812 246.355469 207.46875 C 245.90625 208.554688 245.429688 209.628906 244.925781 210.691406 C 244.425781 211.753906 243.894531 212.804688 243.339844 213.839844 C 242.789062 214.878906 242.207031 215.898438 241.605469 216.90625 C 241 217.914062 240.371094 218.910156 239.71875 219.886719 C 239.066406 220.863281 238.386719 221.824219 237.6875 222.769531 C 236.988281 223.710938 236.265625 224.640625 235.519531 225.546875 C 234.773438 226.457031 234.007812 227.347656 233.214844 228.214844 C 232.425781 229.085938 231.617188 229.9375 230.785156 230.769531 C 229.953125 231.601562 229.105469 232.410156 228.234375 233.199219 C 227.363281 233.988281 226.472656 234.757812 225.5625 235.503906 C 224.65625 236.25 223.730469 236.972656 222.785156 237.671875 C 221.839844 238.371094 220.878906 239.046875 219.902344 239.703125 C 218.925781 240.355469 217.933594 240.984375 216.925781 241.585938 C 215.914062 242.191406 214.894531 242.769531 213.855469 243.324219 C 212.820312 243.878906 211.769531 244.40625 210.707031 244.910156 C 209.644531 245.414062 208.570312 245.890625 207.484375 246.339844 C 206.398438 246.789062 205.304688 247.210938 204.195312 247.609375 C 203.089844 248.003906 201.972656 248.371094 200.847656 248.714844 C 199.722656 249.054688 198.589844 249.367188 197.453125 249.652344 C 196.3125 249.9375 195.164062 250.195312 194.011719 250.425781 C 192.859375 250.65625 191.703125 250.855469 190.539062 251.027344 C 189.375 251.199219 188.210938 251.34375 187.039062 251.460938 C 185.871094 251.574219 184.699219 251.660156 183.523438 251.71875 C 182.351562 251.777344 181.175781 251.804688 180 251.804688 C 178.824219 251.804688 177.648438 251.777344 176.476562 251.71875 C 175.300781 251.660156 174.128906 251.574219 172.960938 251.460938 C 171.789062 251.34375 170.625 251.199219 169.460938 251.027344 C 168.296875 250.855469 167.140625 250.65625 165.988281 250.425781 C 164.835938 250.195312 163.6875 249.9375 162.546875 249.652344 C 161.410156 249.367188 160.277344 249.054688 159.152344 248.714844 C 158.027344 248.371094 156.910156 248.003906 155.804688 247.609375 C 154.695312 247.210938 153.601562 246.789062 152.515625 246.339844 C 151.429688 245.890625 150.355469 245.414062 149.292969 244.910156 C 148.230469 244.40625 147.179688 243.878906 146.144531 243.324219 C 145.105469 242.769531 144.085938 242.191406 143.074219 241.585938 C 142.066406 240.984375 141.074219 240.355469 140.097656 239.703125 C 139.121094 239.046875 138.160156 238.371094 137.214844 237.671875 C 136.269531 236.972656 135.34375 236.25 134.4375 235.503906 C 133.527344 234.757812 132.636719 233.988281 131.765625 233.199219 C 130.894531 232.410156 130.046875 231.601562 129.214844 230.769531 C 128.382812 229.9375 127.574219 229.085938 126.785156 228.214844 C 125.992188 227.347656 125.226562 226.457031 124.480469 225.546875 C 123.734375 224.640625 123.011719 223.710938 122.3125 222.769531 C 121.613281 221.824219 120.933594 220.863281 120.28125 219.886719 C 119.628906 218.910156 119 217.914062 118.394531 216.90625 C 117.792969 215.898438 117.210938 214.878906 116.660156 213.839844 C 116.105469 212.804688 115.574219 211.753906 115.074219 210.691406 C 114.570312 209.628906 114.09375 208.554688 113.644531 207.46875 C 113.195312 206.382812 112.773438 205.285156 112.375 204.179688 C 111.980469 203.074219 111.613281 201.957031 111.269531 200.832031 C 110.929688 199.707031 110.617188 198.574219 110.332031 197.433594 C 110.042969 196.296875 109.789062 195.148438 109.558594 193.996094 C 109.328125 192.84375 109.128906 191.683594 108.957031 190.523438 C 108.78125 189.359375 108.640625 188.195312 108.523438 187.023438 C 108.410156 185.855469 108.320312 184.683594 108.265625 183.507812 C 108.207031 182.332031 108.179688 181.160156 108.179688 179.984375 C 108.179688 178.808594 108.207031 177.632812 108.265625 176.460938 C 108.320312 175.285156 108.410156 174.113281 108.523438 172.945312 C 108.640625 171.773438 108.78125 170.609375 108.957031 169.445312 C 109.128906 168.28125 109.328125 167.125 109.558594 165.972656 C 109.789062 164.820312 110.042969 163.671875 110.332031 162.53125 C 110.617188 161.390625 110.929688 160.257812 111.269531 159.136719 C 111.613281 158.011719 111.980469 156.894531 112.375 155.789062 C 112.773438 154.679688 113.195312 153.585938 113.644531 152.5 C 114.09375 151.414062 114.570312 150.339844 115.074219 149.277344 C 115.574219 148.214844 116.105469 147.164062 116.660156 146.128906 C 117.210938 145.089844 117.792969 144.066406 118.394531 143.058594 C 119 142.050781 119.628906 141.058594 120.28125 140.082031 C 120.933594 139.105469 121.613281 138.144531 122.3125 137.199219 C 123.011719 136.253906 123.734375 135.328125 124.480469 134.421875 C 125.226562 133.511719 125.992188 132.621094 126.785156 131.75 C 127.574219 130.878906 128.382812 130.027344 129.214844 129.199219 C 130.046875 128.367188 130.894531 127.554688 131.765625 126.765625 C 132.636719 125.976562 133.527344 125.210938 134.4375 124.464844 C 135.34375 123.71875 136.269531 122.996094 137.214844 122.296875 C 138.160156 121.59375 139.121094 120.917969 140.097656 120.265625 C 141.074219 119.613281 142.066406 118.984375 143.074219 118.378906 C 144.085938 117.777344 145.105469 117.195312 146.144531 116.640625 C 147.179688 116.089844 148.230469 115.558594 149.292969 115.058594 C 150.355469 114.554688 151.429688 114.078125 152.515625 113.628906 C 153.601562 113.179688 154.695312 112.757812 155.804688 112.359375 C 156.910156 111.964844 158.027344 111.59375 159.152344 111.253906 C 160.277344 110.914062 161.410156 110.601562 162.546875 110.3125 C 163.6875 110.027344 164.835938 109.769531 165.988281 109.542969 C 167.140625 109.3125 168.296875 109.113281 169.460938 108.9375 C 170.625 108.765625 171.789062 108.621094 172.960938 108.507812 C 174.128906 108.390625 175.300781 108.304688 176.476562 108.25 C 177.648438 108.191406 178.824219 108.160156 180 108.160156 C 181.175781 108.160156 182.351562 108.191406 183.523438 108.25 C 184.699219 108.304688 185.871094 108.390625 187.039062 108.507812 C 188.210938 108.621094 189.375 108.765625 190.539062 108.9375 C 191.703125 109.113281 192.859375 109.3125 194.011719 109.542969 C 195.164062 109.769531 196.3125 110.027344 197.453125 110.3125 C 198.589844 110.601562 199.722656 110.914062 200.847656 111.253906 C 201.972656 111.59375 203.089844 111.964844 204.195312 112.359375 C 205.304688 112.757812 206.398438 113.179688 207.484375 113.628906 C 208.570312 114.078125 209.644531 114.554688 210.707031 115.058594 C 211.769531 115.558594 212.820312 116.089844 213.855469 116.640625 C 214.894531 117.195312 215.914062 117.777344 216.925781 118.378906 C 217.933594 118.984375 218.925781 119.613281 219.902344 120.265625 C 220.878906 120.917969 221.839844 121.59375 222.785156 122.296875 C 223.730469 122.996094 224.65625 123.71875 225.5625 124.464844 C 226.472656 125.210938 227.363281 125.976562 228.234375 126.765625 C 229.105469 127.554688 229.953125 128.367188 230.785156 129.199219 C 231.617188 130.027344 232.425781 130.878906 233.214844 131.75 C 234.007812 132.621094 234.773438 133.511719 235.519531 134.421875 C 236.265625 135.328125 236.988281 136.253906 237.6875 137.199219 C 238.386719 138.144531 239.066406 139.105469 239.71875 140.082031 C 240.371094 141.058594 241 142.050781 241.605469 143.058594 C 242.207031 144.066406 242.789062 145.089844 243.339844 146.128906 C 243.894531 147.164062 244.425781 148.214844 244.925781 149.277344 C 245.429688 150.339844 245.90625 151.414062 246.355469 152.5 C 246.804688 153.585938 247.226562 154.679688 247.625 155.789062 C 248.019531 156.894531 248.386719 158.011719 248.730469 159.136719 C 249.070312 160.257812 249.382812 161.390625 249.667969 162.53125 C 249.957031 163.671875 250.210938 164.820312 250.441406 165.972656 C 250.671875 167.125 250.871094 168.28125 251.042969 169.445312 C 251.21875 170.609375 251.359375 171.773438 251.476562 172.945312 C 251.589844 174.113281 251.679688 175.285156 251.734375 176.460938 C 251.792969 177.632812 251.820312 178.808594 251.820312 179.984375 Z M 251.820312 179.984375 "/><g clip-rule="nonzero" clip-path="url(#9bcf127611)"><path style="fill:none;stroke-width:1;stroke-linecap:butt;stroke-linejoin:miter;stroke:#4267b2;stroke-opacity:1;stroke-miterlimit:10;" d="M 462.69416 234.601726 C 462.69416 238.2393 462.609565 241.864789 462.428291 245.502362 C 462.259101 249.139936 461.981147 252.765425 461.630683 256.378829 C 461.268134 260.004317 460.833076 263.605636 460.289252 267.206955 C 459.757514 270.796189 459.141181 274.385423 458.428168 277.950487 C 457.715155 281.51555 456.929633 285.068529 456.035346 288.585254 C 455.153143 292.114063 454.186346 295.618702 453.134955 299.099171 C 452.071478 302.57964 450.935492 306.035939 449.71491 309.455984 C 448.482244 312.876028 447.177068 316.271903 445.787297 319.631522 C 444.397527 322.991142 442.923161 326.314506 441.364201 329.601616 C 439.817326 332.888726 438.173771 336.139581 436.457706 339.342096 C 434.753727 342.556696 432.953067 345.710871 431.091983 348.828792 C 429.218814 351.946712 427.273135 355.028377 425.254946 358.049618 C 423.236757 361.070859 421.133974 364.043759 418.970766 366.96832 C 416.807557 369.880796 414.571839 372.757017 412.263612 375.560729 C 409.955384 378.376525 407.586731 381.131896 405.133484 383.814758 C 402.692321 386.509705 400.190734 389.144226 397.616637 391.718323 C 395.04254 394.29242 392.420103 396.794008 389.725156 399.23517 C 387.03021 401.676333 384.274838 404.05707 381.459042 406.365298 C 378.655331 408.673526 375.791195 410.909244 372.866634 413.072452 C 369.942073 415.23566 366.969172 417.326359 363.947931 419.356633 C 360.926691 421.374821 357.85711 423.3205 354.73919 425.181585 C 351.609185 427.054754 348.45501 428.843328 345.24041 430.559393 C 342.037895 432.275458 338.78704 433.906927 335.49993 435.465888 C 332.21282 437.024848 328.889455 438.499213 325.529836 439.888984 C 322.170216 441.278755 318.786427 442.583931 315.354297 443.816597 C 311.934253 445.037178 308.477954 446.173164 304.997484 447.236641 C 301.517015 448.288033 298.012376 449.25483 294.495652 450.137032 C 290.966843 451.019234 287.413864 451.816842 283.8488 452.529855 C 280.283736 453.242867 276.706587 453.859201 273.105268 454.390939 C 269.50395 454.922677 265.902631 455.369821 262.277142 455.73237 C 258.663738 456.082834 255.03825 456.348703 251.400676 456.529977 C 247.775187 456.711252 244.137613 456.795846 240.50004 456.795846 C 236.862466 456.795846 233.224892 456.711252 229.599403 456.529977 C 225.96183 456.348703 222.336341 456.082834 218.722937 455.73237 C 215.097449 455.369821 211.49613 454.922677 207.894811 454.390939 C 204.293492 453.859201 200.716343 453.242867 197.151279 452.529855 C 193.586215 451.816842 190.033236 451.019234 186.504427 450.137032 C 182.987703 449.25483 179.483064 448.288033 176.002595 447.236641 C 172.522126 446.173164 169.065826 445.037178 165.645782 443.816597 C 162.213653 442.583931 158.829863 441.278755 155.470244 439.888984 C 152.110624 438.499213 148.787259 437.024848 145.50015 435.465888 C 142.21304 433.906927 138.962185 432.275458 135.75967 430.559393 C 132.54507 428.843328 129.390895 427.054754 126.260889 425.181585 C 123.142969 423.3205 120.073388 421.374821 117.052148 419.356633 C 114.030907 417.326359 111.058006 415.23566 108.133446 413.072452 C 105.208885 410.909244 102.344748 408.673526 99.541037 406.365298 C 96.725241 404.05707 93.969869 401.676333 91.274923 399.23517 C 88.579976 396.794008 85.957539 394.29242 83.383442 391.718323 C 80.809345 389.144226 78.307758 386.509705 75.866596 383.814758 C 73.413348 381.131896 71.044696 378.376525 68.736468 375.560729 C 66.42824 372.757017 64.192522 369.880796 62.029314 366.96832 C 59.866105 364.043759 57.763322 361.070859 55.745133 358.049618 C 53.726944 355.028377 51.781265 351.946712 49.908096 348.828792 C 48.047012 345.710871 46.246353 342.556696 44.542373 339.342096 C 42.826308 336.139581 41.182753 332.888726 39.635878 329.601616 C 38.076918 326.314506 36.602553 322.991142 35.212782 319.631522 C 33.823011 316.271903 32.517835 312.876028 31.285169 309.455984 C 30.064588 306.035939 28.928601 302.57964 27.865125 299.099171 C 26.813733 295.618702 25.846936 292.114063 24.964734 288.585254 C 24.070446 285.068529 23.284924 281.51555 22.571911 277.950487 C 21.858898 274.385423 21.242565 270.796189 20.710827 267.206955 C 20.167004 263.605636 19.731945 260.004317 19.369396 256.378829 C 19.018932 252.765425 18.740978 249.139936 18.571788 245.502362 C 18.390514 241.864789 18.305919 238.2393 18.305919 234.601726 C 18.305919 230.964152 18.390514 227.326579 18.571788 223.70109 C 18.740978 220.063516 19.018932 216.438027 19.369396 212.824624 C 19.731945 209.199135 20.167004 205.597816 20.710827 201.996497 C 21.242565 198.395178 21.858898 194.81803 22.571911 191.252966 C 23.284924 187.687902 24.070446 184.134923 24.964734 180.606114 C 25.846936 177.077305 26.813733 173.572666 27.865125 170.104281 C 28.928601 166.623812 30.064588 163.167513 31.285169 159.747468 C 32.517835 156.315339 33.823011 152.93155 35.212782 149.57193 C 36.602553 146.21231 38.076918 142.888946 39.635878 139.601836 C 41.182753 136.314726 42.826308 133.063871 44.542373 129.861356 C 46.246353 126.646756 48.047012 123.480496 49.908096 120.362576 C 51.781265 117.244655 53.726944 114.175075 55.745133 111.153834 C 57.763322 108.132594 59.866105 105.159693 62.029314 102.235132 C 64.192522 99.310571 66.42824 96.446435 68.736468 93.642724 C 71.044696 90.826927 73.413348 88.071556 75.866596 85.376609 C 78.307758 82.681663 80.809345 80.047141 83.383442 77.485129 C 85.957539 74.911032 88.579976 72.39736 91.274923 69.956197 C 93.969869 67.515035 96.725241 65.146382 99.541037 62.838154 C 102.344748 60.529926 105.208885 58.294208 108.133446 56.131 C 111.058006 53.955707 114.030907 51.865008 117.052148 49.84682 C 120.073388 47.828631 123.142969 45.882952 126.260889 44.009783 C 129.390895 42.148698 132.54507 40.348039 135.75967 38.631974 C 138.962185 36.927995 142.21304 35.28444 145.50015 33.737565 C 148.787259 32.178604 152.110624 30.704239 155.470244 29.314468 C 158.829863 27.924698 162.213653 26.619522 165.645782 25.386855 C 169.065826 24.166274 172.522126 23.018203 176.002595 21.966811 C 179.483064 20.915419 182.987703 19.948622 186.504427 19.054335 C 190.033236 18.172133 193.586215 17.374525 197.151279 16.673598 C 200.716343 15.960585 204.293492 15.344252 207.894811 14.800428 C 211.49613 14.26869 215.097449 13.821546 218.722937 13.471082 C 222.336341 13.108534 225.96183 12.842664 229.599403 12.673475 C 233.224892 12.4922 236.862466 12.395521 240.50004 12.395521 C 244.137613 12.395521 247.775187 12.4922 251.400676 12.673475 C 255.03825 12.842664 258.663738 13.108534 262.277142 13.471082 C 265.902631 13.821546 269.50395 14.26869 273.105268 14.800428 C 276.706587 15.344252 280.283736 15.960585 283.8488 16.673598 C 287.413864 17.374525 290.966843 18.172133 294.495652 19.054335 C 298.012376 19.948622 301.517015 20.915419 304.997484 21.966811 C 308.477954 23.018203 311.934253 24.166274 315.354297 25.386855 C 318.786427 26.619522 322.170216 27.924698 325.529836 29.314468 C 328.889455 30.704239 332.21282 32.178604 335.49993 33.737565 C 338.78704 35.28444 342.037895 36.927995 345.24041 38.631974 C 348.45501 40.348039 351.609185 42.148698 354.73919 44.009783 C 357.85711 45.882952 360.926691 47.828631 363.947931 49.84682 C 366.969172 51.865008 369.942073 53.955707 372.866634 56.131 C 375.791195 58.294208 378.655331 60.529926 381.459042 62.838154 C 384.274838 65.146382 387.03021 67.515035 389.725156 69.956197 C 392.420103 72.39736 395.04254 74.911032 397.616637 77.485129 C 400.190734 80.047141 402.692321 82.681663 405.133484 85.376609 C 407.586731 88.071556 409.955384 90.826927 412.263612 93.642724 C 414.571839 96.446435 416.807557 99.310571 418.970766 102.235132 C 421.133974 105.159693 423.236757 108.132594 425.254946 111.153834 C 427.273135 114.175075 429.218814 117.244655 431.091983 120.362576 C 432.953067 123.480496 434.753727 126.646756 436.457706 129.861356 C 438.173771 133.063871 439.817326 136.314726 441.364201 139.601836 C 442.923161 142.888946 444.397527 146.21231 445.787297 149.57193 C 447.177068 152.93155 448.482244 156.315339 449.71491 159.747468 C 450.935492 163.167513 452.071478 166.623812 453.134955 170.104281 C 454.186346 173.572666 455.153143 177.077305 456.035346 180.606114 C 456.929633 184.134923 457.715155 187.687902 458.428168 191.252966 C 459.141181 194.81803 459.757514 198.395178 460.289252 201.996497 C 460.833076 205.597816 461.268134 209.199135 461.630683 212.824624 C 461.981147 216.438027 462.259101 220.063516 462.428291 223.70109 C 462.609565 227.326579 462.69416 230.964152 462.69416 234.601726 Z M 462.69416 234.601726 " transform="matrix(0.323232,0,0,0.323232,102.262623,104.153524)"/></g><path style=" stroke:none;fill-rule:nonzero;fill:#ffffff;fill-opacity:1;" d="M 196.871094 129.367188 C 191.152344 130.398438 189.179688 131.371094 185.882812 133.246094 C 182.359375 135.25 179.902344 137.347656 178.222656 139.0625 C 172.726562 144.75 171.5 150.050781 170.464844 154.15625 C 168.914062 160.203125 169.074219 165.890625 169.074219 165.890625 L 169.074219 170.320312 L 157.535156 170.320312 L 157.535156 190.390625 L 169.074219 190.390625 L 169.074219 250.996094 C 172.628906 251.546875 176.28125 251.839844 180 251.839844 C 185.496094 251.839844 190.859375 251.222656 196 250.0625 L 196 190.390625 L 213.550781 190.390625 L 213.550781 170.320312 L 196 170.320312 L 196 166.050781 C 196 166.050781 196 165.277344 196 165.179688 C 196 165.082031 196 164.953125 196 164.855469 C 196 163.984375 196.03125 162.691406 196.226562 161.558594 C 196.710938 158.617188 197.714844 156.324219 199.394531 154.285156 C 201.332031 151.960938 203.597656 150.957031 206.117188 150.570312 C 212.355469 149.601562 217.558594 151.765625 217.558594 151.765625 L 218.527344 130.660156 C 218.527344 130.660156 214.617188 129.398438 208.152344 128.945312 C 203.597656 128.621094 199.554688 128.878906 196.871094 129.367188 Z M 196.871094 129.367188 "/><g clip-rule="nonzero" clip-path="url(#686173212c)"><path style="fill:none;stroke-width:1;stroke-linecap:butt;stroke-linejoin:miter;stroke:#ffffff;stroke-opacity:1;stroke-miterlimit:10;" d="M 292.694993 78.004782 C 275.002608 81.195212 268.899702 84.204368 258.699993 90.00515 C 247.799357 96.204736 240.197916 102.694361 235.001382 107.999659 C 217.99784 125.595364 214.203161 141.994659 211.000646 154.695954 C 206.202916 173.403476 206.6984 190.999181 206.6984 190.999181 L 206.6984 204.703529 L 170.99942 204.703529 L 170.99942 266.796066 L 206.6984 266.796066 L 206.6984 454.294259 C 217.695715 455.998239 228.995155 456.904611 240.50004 456.904611 C 257.503582 456.904611 274.096235 454.995187 290.000046 451.405953 L 290.000046 266.796066 L 344.297782 266.796066 L 344.297782 204.703529 L 290.000046 204.703529 L 290.000046 191.494665 C 290.000046 191.494665 290.000046 189.101842 290.000046 188.799718 C 290.000046 188.497594 290.000046 188.09879 290.000046 187.796666 C 290.000046 185.10172 290.096726 181.101597 290.700974 177.596958 C 292.199509 168.496981 295.305345 161.403108 300.501878 155.094758 C 306.49602 147.904205 313.505298 144.79837 321.300099 143.601959 C 340.599784 140.604888 356.696954 147.299957 356.696954 147.299957 L 359.694025 82.004905 C 359.694025 82.004905 347.596977 78.101462 327.596364 76.699606 C 313.505298 75.696554 300.997362 76.494162 292.694993 78.004782 Z M 292.694993 78.004782 " transform="matrix(0.323232,0,0,0.323232,102.262623,104.153524)"/></g></g></svg>