<svg xmlns="http://www.w3.org/2000/svg" xmlns:xlink="http://www.w3.org/1999/xlink" width="480" zoomAndPan="magnify" viewBox="0 0 360 359.999987" height="480" preserveAspectRatio="xMidYMid meet" version="1.2"><g id="013aad66db"><rect x="0" width="360" y="0" height="359.999987" style="fill:#ffffff;fill-opacity:1;stroke:none;"/><rect x="0" width="360" y="0" height="359.999987" style="fill:#ffffff;fill-opacity:1;stroke:none;"/><path style=" stroke:none;fill-rule:evenodd;fill:#702e3b;fill-opacity:1;" d="M 252 147.273438 C 252 125.601562 234.398438 108 212.726562 108 L 147.273438 108 C 125.601562 108 108 125.601562 108 147.273438 L 108 212.726562 C 108 234.398438 125.601562 252 147.273438 252 L 212.726562 252 C 234.398438 252 252 234.398438 252 212.726562 Z M 238.910156 147.273438 L 238.910156 212.726562 C 238.910156 227.179688 227.179688 238.910156 212.726562 238.910156 C 212.726562 238.910156 147.273438 238.910156 147.273438 238.910156 C 132.820312 238.910156 121.089844 227.179688 121.089844 212.726562 L 121.089844 147.273438 C 121.089844 132.820312 132.820312 121.089844 147.273438 121.089844 L 212.726562 121.089844 C 227.179688 121.089844 238.910156 132.820312 238.910156 147.273438 Z M 238.910156 147.273438 "/><path style=" stroke:none;fill-rule:evenodd;fill:#702e3b;fill-opacity:1;" d="M 212.65625 174.914062 C 210.546875 160.695312 199.300781 149.453125 185.085938 147.34375 C 183.496094 147.109375 181.890625 146.992188 180.28125 146.992188 C 162.328125 146.992188 147.554688 161.765625 147.554688 179.71875 C 147.554688 197.671875 162.328125 212.445312 180.28125 212.445312 C 198.234375 212.445312 213.007812 197.671875 213.007812 179.71875 C 213.007812 178.109375 212.890625 176.503906 212.65625 174.914062 Z M 199.707031 176.839844 C 199.847656 177.789062 199.917969 178.75 199.917969 179.71875 C 199.917969 190.484375 191.054688 199.355469 180.28125 199.355469 C 169.515625 199.355469 160.644531 190.484375 160.644531 179.71875 C 160.644531 168.945312 169.515625 160.082031 180.28125 160.082031 C 181.25 160.082031 182.210938 160.152344 183.160156 160.292969 C 191.695312 161.554688 198.445312 168.304688 199.707031 176.839844 Z M 199.707031 176.839844 "/><path style=" stroke:none;fill-rule:nonzero;fill:#702e3b;fill-opacity:1;" d="M 222.8125 143.980469 C 222.8125 144.421875 222.769531 144.859375 222.683594 145.292969 C 222.597656 145.726562 222.46875 146.148438 222.300781 146.554688 C 222.132812 146.964844 221.925781 147.351562 221.679688 147.71875 C 221.433594 148.085938 221.152344 148.425781 220.839844 148.738281 C 220.527344 149.050781 220.1875 149.332031 219.820312 149.578125 C 219.453125 149.824219 219.066406 150.03125 218.65625 150.199219 C 218.25 150.367188 217.828125 150.496094 217.394531 150.582031 C 216.960938 150.667969 216.523438 150.710938 216.082031 150.710938 C 215.640625 150.710938 215.203125 150.667969 214.769531 150.582031 C 214.335938 150.496094 213.914062 150.367188 213.507812 150.199219 C 213.097656 150.03125 212.710938 149.824219 212.34375 149.578125 C 211.976562 149.332031 211.632812 149.050781 211.320312 148.738281 C 211.007812 148.425781 210.730469 148.085938 210.484375 147.71875 C 210.238281 147.351562 210.03125 146.964844 209.863281 146.554688 C 209.695312 146.148438 209.566406 145.726562 209.480469 145.292969 C 209.394531 144.859375 209.351562 144.421875 209.351562 143.980469 C 209.351562 143.539062 209.394531 143.101562 209.480469 142.667969 C 209.566406 142.234375 209.695312 141.8125 209.863281 141.402344 C 210.03125 140.996094 210.238281 140.609375 210.484375 140.242188 C 210.730469 139.871094 211.007812 139.53125 211.320312 139.21875 C 211.632812 138.90625 211.976562 138.628906 212.34375 138.382812 C 212.710938 138.136719 213.097656 137.929688 213.507812 137.761719 C 213.914062 137.59375 214.335938 137.464844 214.769531 137.378906 C 215.203125 137.292969 215.640625 137.25 216.082031 137.25 C 216.523438 137.25 216.960938 137.292969 217.394531 137.378906 C 217.828125 137.464844 218.25 137.59375 218.65625 137.761719 C 219.066406 137.929688 219.453125 138.136719 219.820312 138.382812 C 220.1875 138.628906 220.527344 138.90625 220.839844 139.21875 C 221.152344 139.53125 221.433594 139.871094 221.679688 140.242188 C 221.925781 140.609375 222.132812 140.996094 222.300781 141.402344 C 222.46875 141.8125 222.597656 142.234375 222.683594 142.667969 C 222.769531 143.101562 222.8125 143.539062 222.8125 143.980469 Z M 222.8125 143.980469 "/></g></svg>