<svg xmlns="http://www.w3.org/2000/svg" xmlns:xlink="http://www.w3.org/1999/xlink" width="480" zoomAndPan="magnify" viewBox="0 0 360 359.999987" height="480" preserveAspectRatio="xMidYMid meet" version="1.2"><defs><clipPath id="36ee6cc1b9"><path d="M 67.277344 108 L 251.777344 108 L 251.777344 292.5 L 67.277344 292.5 Z M 67.277344 108 "/></clipPath></defs><g id="648c7d1d93"><g clip-rule="nonzero" clip-path="url(#36ee6cc1b9)"><path style=" stroke:none;fill-rule:nonzero;fill:#702e3b;fill-opacity:1;" d="M 67.257812 292.480469 L 67.257812 154.105469 L 124.914062 154.105469 L 124.914062 292.480469 Z M 78.789062 165.636719 L 78.789062 177.167969 L 90.320312 177.167969 L 90.320312 165.636719 Z M 101.851562 165.636719 L 101.851562 177.167969 L 113.382812 177.167969 L 113.382812 165.636719 Z M 101.851562 188.699219 L 101.851562 200.230469 L 113.382812 200.230469 L 113.382812 188.699219 Z M 78.789062 188.699219 L 78.789062 200.230469 L 90.320312 200.230469 L 90.320312 188.699219 Z M 101.851562 223.292969 L 113.382812 223.292969 L 113.382812 211.761719 L 101.851562 211.761719 Z M 78.789062 211.761719 L 78.789062 223.292969 L 90.320312 223.292969 L 90.320312 211.761719 Z M 78.789062 234.824219 L 78.789062 246.355469 L 90.320312 246.355469 L 90.320312 234.824219 Z M 101.851562 246.355469 L 113.382812 246.355469 L 113.382812 234.824219 L 101.851562 234.824219 Z M 101.851562 257.886719 L 101.851562 269.417969 L 113.382812 269.417969 L 113.382812 257.886719 Z M 78.789062 257.886719 L 78.789062 269.417969 L 90.320312 269.417969 L 90.320312 257.886719 Z M 221.777344 107.980469 L 224.082031 107.980469 L 224.082031 124.125 L 226.390625 126.429688 L 240.226562 135.65625 L 251.757812 151.796875 L 251.757812 292.480469 L 194.101562 292.480469 L 194.101562 151.796875 L 205.632812 135.65625 L 219.46875 126.429688 L 221.777344 124.125 Z M 205.632812 154.105469 L 217.164062 154.105469 L 217.164062 142.574219 Z M 228.695312 142.574219 L 228.695312 154.105469 L 240.226562 154.105469 Z M 205.632812 165.636719 L 205.632812 177.167969 L 217.164062 177.167969 L 217.164062 165.636719 Z M 228.695312 165.636719 L 228.695312 177.167969 L 240.226562 177.167969 L 240.226562 165.636719 Z M 228.695312 188.699219 L 228.695312 200.230469 L 240.226562 200.230469 L 240.226562 188.699219 Z M 205.632812 188.699219 L 205.632812 200.230469 L 217.164062 200.230469 L 217.164062 188.699219 Z M 228.695312 223.292969 L 240.226562 223.292969 L 240.226562 211.761719 L 228.695312 211.761719 Z M 205.324219 211.761719 L 205.324219 223.292969 L 216.855469 223.292969 L 216.855469 211.761719 Z M 205.632812 234.824219 L 205.632812 246.355469 L 217.164062 246.355469 L 217.164062 234.824219 Z M 228.695312 246.355469 L 240.226562 246.355469 L 240.226562 234.824219 L 228.695312 234.824219 Z M 228.695312 257.886719 L 228.695312 269.417969 L 240.226562 269.417969 L 240.226562 257.886719 Z M 205.632812 257.886719 L 205.632812 269.417969 L 217.164062 269.417969 L 217.164062 257.886719 Z M 129.527344 292.480469 L 129.527344 107.980469 L 189.488281 131.042969 L 189.488281 292.480469 Z M 136.445312 142.574219 L 136.445312 154.105469 L 147.976562 154.105469 L 147.976562 142.574219 Z M 171.039062 142.574219 L 171.039062 154.105469 L 182.570312 154.105469 L 182.570312 142.574219 Z M 136.445312 165.636719 L 136.445312 177.167969 L 147.976562 177.167969 L 147.976562 165.636719 Z M 171.039062 165.636719 L 171.039062 177.167969 L 182.570312 177.167969 L 182.570312 165.636719 Z M 171.039062 188.699219 L 171.039062 200.230469 L 182.570312 200.230469 L 182.570312 188.699219 Z M 136.445312 188.699219 L 136.445312 200.230469 L 147.976562 200.230469 L 147.976562 188.699219 Z M 171.039062 223.292969 L 182.570312 223.292969 L 182.570312 211.761719 L 171.039062 211.761719 Z M 136.445312 211.761719 L 136.445312 223.292969 L 147.976562 223.292969 L 147.976562 211.761719 Z M 136.445312 234.824219 L 136.445312 246.355469 L 147.976562 246.355469 L 147.976562 234.824219 Z M 171.039062 246.355469 L 182.570312 246.355469 L 182.570312 234.824219 L 171.039062 234.824219 Z M 171.039062 257.886719 L 171.039062 269.417969 L 182.570312 269.417969 L 182.570312 257.886719 Z M 136.445312 257.886719 L 136.445312 269.417969 L 147.976562 269.417969 L 147.976562 257.886719 Z M 164.121094 142.574219 L 154.894531 142.574219 L 154.894531 154.105469 L 164.121094 154.105469 Z M 154.894531 165.636719 L 154.894531 177.167969 L 164.121094 177.167969 L 164.121094 165.636719 Z M 154.894531 188.699219 L 154.894531 200.230469 L 164.121094 200.230469 L 164.121094 188.699219 Z M 154.894531 211.761719 L 154.894531 223.292969 L 164.121094 223.292969 L 164.121094 211.761719 Z M 154.894531 246.355469 L 164.121094 246.355469 L 164.121094 234.824219 L 154.894531 234.824219 Z M 154.894531 269.417969 L 164.121094 269.417969 L 164.121094 257.886719 L 154.894531 257.886719 Z M 154.894531 269.417969 "/></g></g></svg>