<svg xmlns="http://www.w3.org/2000/svg" xmlns:xlink="http://www.w3.org/1999/xlink" width="480" zoomAndPan="magnify" viewBox="0 0 360 359.999987" height="480" preserveAspectRatio="xMidYMid meet" version="1.2"><defs><clipPath id="3fe0626de8"><path d="M 108 115.40625 L 251.738281 115.40625 L 251.738281 244.355469 L 108 244.355469 Z M 108 115.40625 "/></clipPath></defs><g id="91a232b9de"><g clip-rule="nonzero" clip-path="url(#3fe0626de8)"><path style=" stroke:none;fill-rule:evenodd;fill:#702e3b;fill-opacity:1;" d="M 183.414062 149.832031 C 187.804688 149.832031 191.363281 153.390625 191.363281 157.78125 L 191.363281 175.007812 L 208.433594 175.007812 C 212.824219 175.007812 216.382812 178.566406 216.382812 182.957031 C 216.382812 187.34375 212.824219 190.902344 208.433594 190.902344 L 183.414062 190.902344 C 179.023438 190.902344 175.464844 187.34375 175.464844 182.957031 L 175.472656 182.875 L 175.464844 182.792969 L 175.464844 157.78125 C 175.464844 153.390625 179.023438 149.832031 183.414062 149.832031 Z M 188.375 115.414062 C 214.605469 115.824219 238.894531 132.328125 248.09375 158.574219 C 259.871094 192.164062 242.179688 228.9375 208.578125 240.710938 C 186.714844 248.371094 163.5 243.558594 146.707031 230.003906 C 141.9375 226.15625 143.210938 218.578125 148.996094 216.550781 C 151.542969 215.65625 154.378906 216.144531 156.476562 217.84375 C 169.210938 228.144531 186.828125 231.808594 203.421875 225.996094 C 229.007812 217.027344 242.425781 188.933594 233.246094 163.375 C 224.207031 138.210938 196.296875 124.941406 171.058594 133.804688 C 156.433594 138.9375 145.789062 150.328125 141.078125 163.914062 L 140.257812 166.566406 L 146.773438 163.1875 C 150.667969 161.167969 155.46875 162.6875 157.488281 166.585938 C 159.507812 170.480469 157.988281 175.277344 154.089844 177.296875 C 146.6875 181.136719 139.28125 184.972656 131.878906 188.8125 C 130.90625 189.316406 129.875 189.601562 128.84375 189.683594 L 128.753906 189.679688 L 128.363281 189.753906 C 125.277344 190.023438 122.183594 188.464844 120.640625 185.554688 L 108.925781 163.453125 C 106.871094 159.578125 108.347656 154.765625 112.230469 152.710938 C 116.109375 150.65625 120.917969 152.136719 122.976562 156.011719 L 125.625 161.007812 L 125.671875 160.824219 C 131.542969 141.929688 146.011719 125.96875 166.171875 118.992188 C 173.53125 116.445312 181.027344 115.296875 188.375 115.414062 Z M 188.375 115.414062 "/></g></g></svg>