<svg xmlns="http://www.w3.org/2000/svg" xmlns:xlink="http://www.w3.org/1999/xlink" width="480" zoomAndPan="magnify" viewBox="0 0 360 359.999987" height="480" preserveAspectRatio="xMidYMid meet" version="1.2"><defs><clipPath id="3d3d04104d"><path d="M 108 108 L 252 108 L 252 252 L 108 252 Z M 108 108 "/></clipPath></defs><g id="13c2f6524e"><g clip-rule="nonzero" clip-path="url(#3d3d04104d)"><path style=" stroke:none;fill-rule:nonzero;fill:#702e3b;fill-opacity:1;" d="M 204.574219 180.109375 C 204.574219 181.769531 203.914062 183.359375 202.742188 184.535156 L 173.964844 213.308594 C 172.742188 214.53125 171.144531 215.140625 169.539062 215.140625 C 167.941406 215.140625 166.339844 214.53125 165.117188 213.308594 C 162.675781 210.867188 162.675781 206.90625 165.117188 204.460938 L 189.558594 180.019531 L 165.117188 155.578125 C 162.675781 153.132812 162.675781 149.171875 165.117188 146.730469 C 167.5625 144.285156 171.523438 144.285156 173.964844 146.730469 L 202.742188 175.503906 C 203.914062 176.679688 204.574219 178.269531 204.574219 179.929688 Z M 180.019531 108.011719 C 140.25 108.011719 108.011719 140.25 108.011719 180.019531 C 108.011719 219.789062 140.25 252.027344 180.019531 252.027344 C 219.789062 252.027344 252.027344 219.789062 252.027344 180.019531 C 252.027344 140.25 219.789062 108.011719 180.019531 108.011719 "/></g></g></svg>