<svg xmlns="http://www.w3.org/2000/svg" xmlns:xlink="http://www.w3.org/1999/xlink" width="480" zoomAndPan="magnify" viewBox="0 0 360 359.999987" height="480" preserveAspectRatio="xMidYMid meet" version="1.2"><defs><clipPath id="3787d19eca"><path d="M 118.351562 108 L 182 108 L 182 251 L 118.351562 251 Z M 118.351562 108 "/></clipPath><clipPath id="0da5cd5d76"><path d="M 177 108 L 241.351562 108 L 241.351562 251 L 177 251 Z M 177 108 "/></clipPath></defs><g id="e060c037c5"><g clip-rule="nonzero" clip-path="url(#3787d19eca)"><path style=" stroke:none;fill-rule:nonzero;fill:#702e3b;fill-opacity:1;" d="M 181.875 108.753906 L 131.664062 108.453125 C 126.613281 108.160156 123.199219 108.5625 121.425781 109.660156 C 119.910156 110.183594 118.949219 112.351562 118.542969 116.167969 L 118.351562 236.996094 C 118.375 238.132812 118.414062 239.257812 118.46875 240.363281 C 118.523438 243.8125 119.132812 246.554688 120.292969 248.585938 C 121.109375 249.886719 122.414062 250.558594 124.214844 250.601562 C 129.976562 251.296875 148.933594 237.476562 181.085938 209.144531 L 181.875 108.753906 "/></g><g clip-rule="nonzero" clip-path="url(#0da5cd5d76)"><path style=" stroke:none;fill-rule:nonzero;fill:#702e3b;fill-opacity:1;" d="M 177.824219 108.753906 L 228.035156 108.453125 C 233.085938 108.160156 236.5 108.5625 238.273438 109.660156 C 239.789062 110.183594 240.75 112.351562 241.15625 116.167969 L 241.351562 236.996094 C 241.324219 238.132812 241.285156 239.257812 241.234375 240.363281 C 241.179688 243.8125 240.570312 246.554688 239.40625 248.585938 C 238.59375 249.886719 237.285156 250.558594 235.488281 250.601562 C 229.726562 251.296875 210.769531 237.476562 178.617188 209.144531 L 177.824219 108.753906 "/></g></g></svg>