<svg xmlns="http://www.w3.org/2000/svg" xmlns:xlink="http://www.w3.org/1999/xlink" width="480" zoomAndPan="magnify" viewBox="0 0 360 359.999987" height="480" preserveAspectRatio="xMidYMid meet" version="1.2"><g id="9cfcece8eb"><path style=" stroke:none;fill-rule:nonzero;fill:#702e3b;fill-opacity:1;" d="M 252 180 C 252 219.765625 219.765625 252 180 252 C 140.238281 252 108 219.765625 108 180 C 108 140.234375 140.238281 108 180 108 C 219.765625 108 252 140.234375 252 180 "/><path style=" stroke:none;fill-rule:nonzero;fill:#ffffff;fill-opacity:1;" d="M 184.34375 184.324219 C 176.753906 191.914062 164.445312 191.914062 156.855469 184.324219 C 149.296875 176.765625 149.296875 164.457031 156.875 156.855469 C 164.457031 149.296875 176.742188 149.296875 184.3125 156.863281 C 191.914062 164.46875 191.914062 176.753906 184.34375 184.324219 Z M 147.722656 147.703125 C 135.078125 160.367188 135.078125 180.855469 147.703125 193.476562 C 158.773438 204.550781 175.863281 205.929688 188.445312 197.585938 L 212.609375 221.753906 L 221.761719 212.601562 L 197.605469 188.425781 C 205.921875 175.894531 204.546875 158.796875 193.476562 147.703125 C 180.851562 135.101562 160.359375 135.089844 147.722656 147.703125 "/></g></svg>