<svg xmlns="http://www.w3.org/2000/svg" xmlns:xlink="http://www.w3.org/1999/xlink" width="480" zoomAndPan="magnify" viewBox="0 0 360 359.999987" height="480" preserveAspectRatio="xMidYMid meet" version="1.2"><defs><clipPath id="7fbaf2902e"><path d="M 108.007812 108.148438 L 251.992188 108.148438 L 251.992188 252 L 108.007812 252 Z M 108.007812 108.148438 "/></clipPath><clipPath id="9a8b2cb3ab"><path d="M 78.386719 180.007812 L 180 78.394531 L 281.613281 180.007812 L 180 281.625 Z M 78.386719 180.007812 "/></clipPath><clipPath id="bd96cd9c24"><path d="M 129.191406 129.199219 C 101.132812 157.261719 101.132812 202.753906 129.191406 230.816406 C 157.253906 258.875 202.746094 258.875 230.808594 230.816406 C 258.867188 202.753906 258.867188 157.261719 230.808594 129.199219 C 202.746094 101.140625 157.253906 101.140625 129.191406 129.199219 "/></clipPath><clipPath id="4bb43aa654"><path d="M 143.777344 143.785156 L 216.222656 143.785156 L 216.222656 216.230469 L 143.777344 216.230469 Z M 143.777344 143.785156 "/></clipPath><clipPath id="f71ce5126e"><path d="M 111.074219 180.007812 L 180.039062 111.046875 L 249.003906 180.007812 L 180.039062 248.972656 Z M 111.074219 180.007812 "/></clipPath><clipPath id="ec9734b25f"><path d="M 111.074219 180.007812 L 180.039062 111.046875 L 249.003906 180.007812 L 180.039062 248.972656 Z M 111.074219 180.007812 "/></clipPath></defs><g id="f92c8be2de"><rect x="0" width="360" y="0" height="359.999987" style="fill:#ffffff;fill-opacity:1;stroke:none;"/><rect x="0" width="360" y="0" height="359.999987" style="fill:#ffffff;fill-opacity:1;stroke:none;"/><g clip-rule="nonzero" clip-path="url(#7fbaf2902e)"><g clip-rule="nonzero" clip-path="url(#9a8b2cb3ab)"><g clip-rule="nonzero" clip-path="url(#bd96cd9c24)"><path style=" stroke:none;fill-rule:nonzero;fill:#702e3b;fill-opacity:1;" d="M 78.386719 180.007812 L 180 78.394531 L 281.613281 180.007812 L 180 281.625 Z M 78.386719 180.007812 "/></g></g></g><g clip-rule="nonzero" clip-path="url(#4bb43aa654)"><g clip-rule="nonzero" clip-path="url(#f71ce5126e)"><g clip-rule="nonzero" clip-path="url(#ec9734b25f)"><path style=" stroke:none;fill-rule:nonzero;fill:#ffffff;fill-opacity:1;" d="M 156.296875 177 L 162.59375 170.703125 C 163.378906 170.203125 164.433594 170.296875 165.117188 170.980469 L 169.246094 175.109375 C 169.914062 175.78125 170.019531 176.800781 169.558594 177.578125 L 166.382812 180.757812 L 156.4375 190.707031 C 152.882812 194.257812 152.882812 200.058594 156.4375 203.613281 C 159.992188 207.164062 165.789062 207.164062 169.34375 203.613281 L 182.425781 190.53125 C 183.210938 190.03125 184.261719 190.125 184.945312 190.8125 L 189.074219 194.941406 C 189.746094 195.609375 189.851562 196.628906 189.386719 197.410156 L 183.003906 203.792969 C 183.003906 203.792969 183.003906 203.792969 183.003906 203.796875 L 176.265625 210.535156 C 168.875 217.921875 156.90625 217.921875 149.515625 210.535156 C 142.125 203.144531 142.125 191.171875 149.515625 183.785156 L 156.289062 177.007812 C 156.292969 177.007812 156.292969 177.003906 156.296875 177 Z M 178.695312 188.660156 C 178.695312 188.65625 178.691406 188.652344 178.691406 188.644531 L 174.015625 193.320312 C 172.050781 195.285156 168.683594 195.285156 166.722656 193.320312 C 164.757812 191.359375 164.664062 188.085938 166.722656 186.027344 L 171.398438 181.351562 C 171.394531 181.347656 171.394531 181.347656 171.394531 181.347656 L 181.378906 171.363281 C 181.378906 171.363281 181.378906 171.367188 181.378906 171.367188 L 186.054688 166.691406 C 188.113281 164.632812 191.386719 164.726562 193.351562 166.691406 C 195.316406 168.65625 195.316406 172.023438 193.351562 173.988281 L 188.675781 178.664062 C 188.679688 178.664062 188.683594 178.664062 188.6875 178.664062 Z M 177.039062 156.261719 L 183.8125 149.484375 C 191.203125 142.097656 203.175781 142.097656 210.5625 149.484375 C 217.953125 156.875 217.953125 168.847656 210.5625 176.234375 L 203.824219 182.972656 L 197.441406 189.359375 C 196.660156 189.820312 195.640625 189.714844 194.96875 189.046875 L 190.839844 184.917969 C 190.15625 184.234375 190.0625 183.179688 190.5625 182.394531 L 203.640625 169.3125 C 207.195312 165.757812 207.195312 159.960938 203.640625 156.40625 C 200.085938 152.851562 194.289062 152.851562 190.734375 156.40625 L 180.789062 166.355469 L 180.785156 166.351562 L 177.609375 169.527344 C 176.828125 169.988281 175.808594 169.886719 175.140625 169.214844 L 171.011719 165.085938 C 170.328125 164.402344 170.234375 163.351562 170.730469 162.566406 L 177.03125 156.265625 C 177.03125 156.265625 177.035156 156.261719 177.039062 156.261719 Z M 177.039062 156.261719 "/></g></g></g></g></svg>