<svg xmlns="http://www.w3.org/2000/svg" xmlns:xlink="http://www.w3.org/1999/xlink" width="480" zoomAndPan="magnify" viewBox="0 0 360 359.999987" height="480" preserveAspectRatio="xMidYMid meet" version="1.2"><g id="536ef3e4e6"><rect x="0" width="360" y="0" height="359.999987" style="fill:#ffffff;fill-opacity:1;stroke:none;"/><rect x="0" width="360" y="0" height="359.999987" style="fill:#ffffff;fill-opacity:1;stroke:none;"/><path style=" stroke:none;fill-rule:evenodd;fill:#702e3b;fill-opacity:1;" d="M 179.910156 108 C 219.703125 108 252 140.117188 252 179.910156 C 252 219.703125 219.703125 252 179.910156 252 C 140.117188 252 108 219.703125 108 179.910156 C 108 140.117188 140.117188 108 179.910156 108 Z M 188.832031 179.910156 L 225.414062 216.667969 L 207.746094 216.667969 L 179.910156 188.832031 L 152.253906 216.667969 L 134.585938 216.667969 L 171.167969 179.910156 L 134.585938 143.332031 L 152.253906 143.332031 L 179.910156 171.167969 L 207.746094 143.332031 L 225.414062 143.332031 Z M 208.816406 145.652344 L 179.910156 174.558594 L 151.183594 145.652344 L 140.296875 145.652344 L 174.558594 179.910156 L 140.296875 214.171875 L 151.183594 214.171875 L 179.910156 185.441406 L 208.816406 214.171875 L 219.703125 214.171875 L 185.441406 179.910156 L 219.703125 145.652344 Z M 208.816406 145.652344 "/></g></svg>